<?xml version="1.0" encoding="UTF-8"?>
<svg id="Layer_1" data-name="Layer 1" xmlns="http://www.w3.org/2000/svg" viewBox="0 0 340.24 167.73">
  <defs>
    <style>
      .cls-1 {
        fill: #fff;
        stroke-width: 3px;
      }

      .cls-1, .cls-2 {
        stroke: #fff;
        stroke-miterlimit: 10;
      }

      .cls-2 {
        fill: none;
        stroke-width: 5px;
      }
    </style>
  </defs>
  <g>
    <path class="cls-1" d="M14.54,6.96h3.9l11.62,33.15h-3.98l-4.24-12.12-12.05,3.75-2.91,8.36H2.92L14.54,6.96Zm-3.44,21.03l9.71-3.03-4.32-12.46-5.39,15.49Z"/>
    <path class="cls-1" d="M33.85,6.96h14.84c1.17,0,2.31,.19,3.4,.55,1.1,.37,2.06,.92,2.91,1.66,.84,.74,1.52,1.67,2.03,2.79,.51,1.12,.76,2.45,.76,3.99,0,1.25-.15,2.33-.46,3.24-.31,.91-.73,1.69-1.28,2.35-.55,.65-1.21,1.2-1.99,1.64-.78,.44-1.63,.82-2.54,1.13l7.57,15.78h-4.02l-7.19-14.76-10.21,2.73v12.03h-3.82V6.96Zm20.15,9c0-.88-.15-1.66-.46-2.35s-.73-1.26-1.26-1.73c-.54-.47-1.17-.82-1.89-1.07-.73-.24-1.52-.36-2.39-.36h-10.33v13.74l9.83-2.3c2.22-.54,3.86-1.26,4.91-2.15,1.06-.9,1.59-2.16,1.59-3.78Z"/>
    <path class="cls-1" d="M83.29,21.42v3.5h-16.56v11.73h17.67v3.46h-21.49V6.96h21.11v3.5h-17.29v10.96h16.56Z"/>
    <path class="cls-1" d="M101.27,6.96l8.76,15.74,8.76-15.74h4.21l-11.05,19.92v13.22h-3.82v-13.22l-11.05-19.92h4.21Z"/>
    <path class="cls-1" d="M124.17,23.47c0-2.67,.4-5.09,1.21-7.25s1.89-3.99,3.27-5.48,2.97-2.65,4.78-3.46c1.81-.81,3.73-1.22,5.77-1.22s4.01,.41,5.83,1.22c1.82,.81,3.42,1.96,4.78,3.46,1.36,1.49,2.45,3.32,3.25,5.48,.8,2.16,1.21,4.58,1.21,7.25s-.4,5.13-1.21,7.29c-.8,2.16-1.89,4-3.25,5.5-1.36,1.51-2.96,2.67-4.78,3.48-1.82,.81-3.77,1.22-5.83,1.22s-3.96-.41-5.77-1.22c-1.81-.81-3.4-1.97-4.78-3.48-1.38-1.51-2.47-3.34-3.27-5.5-.8-2.16-1.21-4.59-1.21-7.29Zm3.82,0c0,2.28,.31,4.28,.94,6.02,.62,1.73,1.46,3.2,2.5,4.39,1.05,1.19,2.24,2.1,3.58,2.71,1.34,.61,2.73,.92,4.19,.92s2.86-.31,4.21-.92c1.35-.61,2.56-1.51,3.61-2.71s1.9-2.66,2.52-4.39c.62-1.73,.94-3.74,.94-6.02s-.33-4.2-.99-5.93c-.66-1.73-1.53-3.19-2.6-4.37-1.07-1.18-2.28-2.08-3.63-2.69s-2.7-.92-4.05-.92-2.7,.31-4.03,.92c-1.34,.61-2.54,1.51-3.59,2.69-1.06,1.18-1.92,2.64-2.58,4.37s-.99,3.71-.99,5.93Z"/>
    <path class="cls-1" d="M171.63,40.96c-1.81,0-3.47-.33-4.99-1-1.52-.67-2.82-1.59-3.92-2.77-1.1-1.18-1.95-2.57-2.56-4.18-.61-1.61-.92-3.33-.92-5.18V6.96h3.82V27.4c0,1.28,.18,2.51,.55,3.69,.37,1.18,.92,2.23,1.64,3.14s1.62,1.63,2.68,2.18c1.06,.54,2.29,.81,3.69,.81s2.63-.27,3.69-.81c1.06-.54,1.94-1.27,2.66-2.18,.71-.91,1.25-1.96,1.62-3.14,.37-1.18,.55-2.41,.55-3.69V6.96h3.82V27.82c0,1.85-.31,3.58-.92,5.18-.61,1.61-1.46,3-2.54,4.18-1.08,1.18-2.38,2.1-3.9,2.77-1.52,.67-3.18,1-4.99,1Z"/>
    <path class="cls-1" d="M4.56,64.05h3.82v29.65H25.25v3.5H4.56v-33.15Z"/>
    <path class="cls-1" d="M27.16,80.56c0-2.67,.4-5.09,1.21-7.25,.8-2.16,1.89-3.99,3.27-5.48s2.97-2.64,4.78-3.46c1.81-.81,3.73-1.22,5.77-1.22s4.01,.41,5.83,1.22c1.82,.81,3.42,1.96,4.78,3.46,1.36,1.49,2.45,3.32,3.25,5.48,.8,2.16,1.21,4.58,1.21,7.25s-.4,5.13-1.21,7.3c-.8,2.16-1.89,4-3.25,5.5-1.36,1.51-2.96,2.67-4.78,3.48-1.82,.81-3.77,1.22-5.83,1.22s-3.96-.41-5.77-1.22c-1.81-.81-3.4-1.97-4.78-3.48s-2.47-3.34-3.27-5.5-1.21-4.59-1.21-7.3Zm3.82,0c0,2.28,.31,4.28,.94,6.02,.62,1.74,1.46,3.2,2.5,4.39,1.05,1.19,2.24,2.1,3.58,2.71,1.34,.61,2.73,.92,4.19,.92s2.86-.31,4.21-.92c1.35-.61,2.56-1.51,3.61-2.71,1.06-1.2,1.9-2.66,2.52-4.39,.62-1.73,.94-3.74,.94-6.02s-.33-4.19-.99-5.93c-.66-1.73-1.53-3.19-2.6-4.37-1.07-1.18-2.28-2.08-3.63-2.69-1.35-.61-2.7-.92-4.05-.92s-2.7,.31-4.03,.92c-1.34,.61-2.54,1.51-3.59,2.69-1.06,1.18-1.92,2.64-2.58,4.37-.66,1.74-.99,3.71-.99,5.93Z"/>
    <path class="cls-1" d="M60.7,80.56c0-2.67,.4-5.09,1.21-7.25,.8-2.16,1.89-3.99,3.27-5.48s2.97-2.64,4.78-3.46c1.81-.81,3.73-1.22,5.77-1.22s4.01,.41,5.83,1.22c1.82,.81,3.42,1.96,4.78,3.46,1.36,1.49,2.45,3.32,3.25,5.48,.8,2.16,1.21,4.58,1.21,7.25s-.4,5.13-1.21,7.3c-.8,2.16-1.89,4-3.25,5.5-1.36,1.51-2.96,2.67-4.78,3.48-1.82,.81-3.77,1.22-5.83,1.22s-3.96-.41-5.77-1.22c-1.81-.81-3.4-1.97-4.78-3.48s-2.47-3.34-3.27-5.5-1.21-4.59-1.21-7.3Zm3.82,0c0,2.28,.31,4.28,.94,6.02,.62,1.74,1.46,3.2,2.5,4.39,1.05,1.19,2.24,2.1,3.58,2.71,1.34,.61,2.73,.92,4.19,.92s2.86-.31,4.21-.92c1.35-.61,2.56-1.51,3.61-2.71,1.06-1.2,1.9-2.66,2.52-4.39,.62-1.73,.94-3.74,.94-6.02s-.33-4.19-.99-5.93c-.66-1.73-1.53-3.19-2.6-4.37-1.07-1.18-2.28-2.08-3.63-2.69-1.35-.61-2.7-.92-4.05-.92s-2.7,.31-4.03,.92c-1.34,.61-2.54,1.51-3.59,2.69-1.06,1.18-1.92,2.64-2.58,4.37-.66,1.74-.99,3.71-.99,5.93Z"/>
    <path class="cls-1" d="M112.78,97.2l-13.19-15.36v15.36h-3.82v-33.15h3.82v13.69l13-13.69h4.97l-14.8,15.61,15.03,17.53h-5.01Z"/>
    <path class="cls-1" d="M125.09,64.05v33.15h-3.82v-33.15h3.82Z"/>
    <path class="cls-1" d="M130.83,64.05h3.82l17.09,26.88v-26.88h3.82v33.15h-3.82l-17.09-27.09v27.09h-3.82v-33.15Z"/>
    <path class="cls-1" d="M174.57,98.05c-2.01,0-3.94-.41-5.77-1.22-1.83-.81-3.45-1.98-4.84-3.5-1.39-1.52-2.5-3.36-3.33-5.5-.83-2.15-1.24-4.56-1.24-7.23,0-2.53,.39-4.86,1.17-7,.78-2.13,1.84-3.97,3.19-5.52s2.96-2.76,4.82-3.63c1.86-.87,3.86-1.3,6-1.3,2.63,0,5.05,.69,7.29,2.07,2.23,1.38,4.08,3.31,5.56,5.78l-2.75,2.22c-1.07-1.93-2.48-3.52-4.23-4.76-1.75-1.24-3.74-1.86-5.98-1.86-1.61,0-3.1,.37-4.47,1.11-1.38,.74-2.56,1.74-3.56,3.01-1,1.27-1.78,2.75-2.35,4.44-.57,1.69-.86,3.51-.86,5.44s.31,3.8,.92,5.5c.61,1.71,1.44,3.19,2.49,4.44,1.04,1.25,2.25,2.23,3.61,2.94,1.36,.71,2.8,1.07,4.3,1.07,1.61,0,3.04-.28,4.3-.83s2.33-1.33,3.21-2.32c.88-1,1.55-2.19,2.03-3.58,.47-1.39,.71-2.94,.71-4.65h-10.82v-3.5h14.61v1.96c0,2.36-.31,4.54-.94,6.55-.62,2-1.53,3.74-2.72,5.21-1.19,1.46-2.65,2.61-4.4,3.43-1.75,.82-3.73,1.24-5.95,1.24Z"/>
    <path class="cls-1" d="M223.1,78.51v3.5h-16.56v15.19h-3.82v-33.15h21.11v3.5h-17.29v10.96h16.56Z"/>
    <path class="cls-1" d="M226.88,80.56c0-2.67,.4-5.09,1.21-7.25,.8-2.16,1.89-3.99,3.27-5.48s2.97-2.64,4.78-3.46c1.81-.81,3.73-1.22,5.77-1.22s4.01,.41,5.83,1.22c1.82,.81,3.42,1.96,4.78,3.46,1.36,1.49,2.45,3.32,3.25,5.48,.8,2.16,1.21,4.58,1.21,7.25s-.4,5.13-1.21,7.3c-.8,2.16-1.89,4-3.25,5.5-1.36,1.51-2.96,2.67-4.78,3.48-1.82,.81-3.77,1.22-5.83,1.22s-3.96-.41-5.77-1.22c-1.81-.81-3.4-1.97-4.78-3.48s-2.47-3.34-3.27-5.5-1.21-4.59-1.21-7.3Zm3.82,0c0,2.28,.31,4.28,.94,6.02,.62,1.74,1.46,3.2,2.5,4.39,1.05,1.19,2.24,2.1,3.58,2.71,1.34,.61,2.73,.92,4.19,.92s2.86-.31,4.21-.92c1.35-.61,2.56-1.51,3.61-2.71,1.06-1.2,1.9-2.66,2.52-4.39,.62-1.73,.94-3.74,.94-6.02s-.33-4.19-.99-5.93c-.66-1.73-1.53-3.19-2.6-4.37-1.07-1.18-2.28-2.08-3.63-2.69-1.35-.61-2.7-.92-4.05-.92s-2.7,.31-4.03,.92c-1.34,.61-2.54,1.51-3.59,2.69-1.06,1.18-1.92,2.64-2.58,4.37-.66,1.74-.99,3.71-.99,5.93Z"/>
    <path class="cls-1" d="M261.95,64.05h14.84c1.17,0,2.31,.19,3.4,.55,1.1,.37,2.06,.92,2.91,1.66,.84,.74,1.52,1.67,2.03,2.79,.51,1.12,.76,2.45,.76,3.99,0,1.25-.15,2.33-.46,3.24-.31,.91-.73,1.69-1.28,2.35-.55,.65-1.21,1.2-1.99,1.64-.78,.44-1.63,.82-2.54,1.13l7.57,15.79h-4.02l-7.19-14.76-10.21,2.73v12.03h-3.82v-33.15Zm20.15,9c0-.88-.15-1.66-.46-2.35s-.73-1.26-1.26-1.73c-.54-.47-1.17-.82-1.89-1.07-.73-.24-1.52-.36-2.39-.36h-10.33v13.74l9.83-2.3c2.22-.54,3.86-1.26,4.91-2.15,1.06-.9,1.59-2.15,1.59-3.78Z"/>
    <path class="cls-1" d="M14.54,121.14h3.9l11.62,33.15h-3.98l-4.24-12.12-12.05,3.75-2.91,8.36H2.92l11.62-33.15Zm-3.44,21.03l9.71-3.03-4.32-12.46-5.39,15.49Z"/>
    <path class="cls-1" d="M59.39,127.8l-5.96,26.49h-3.75l-8.22-33.15h3.71l6.39,26.45,5.93-26.45h3.86l5.89,26.45,6.42-26.45h3.71l-8.22,33.15h-3.75l-6-26.49Z"/>
    <path class="cls-1" d="M101.34,135.6v3.5h-16.56v11.73h17.67v3.46h-21.49v-33.15h21.11v3.5h-17.29v10.96h16.56Z"/>
    <path class="cls-1" d="M130.86,128.52c0,1.76-.36,3.24-1.09,4.42-.73,1.18-1.93,2.14-3.61,2.88,.94,.23,1.8,.6,2.58,1.11,.78,.51,1.45,1.15,2.01,1.9,.56,.75,.99,1.62,1.3,2.6,.31,.98,.46,2.06,.46,3.22,0,1.37-.22,2.64-.67,3.82-.45,1.18-1.06,2.2-1.85,3.05-.79,.85-1.73,1.53-2.81,2.03-1.08,.5-2.26,.75-3.54,.75h-16.18v-33.15h15.3c.97,0,1.94,.11,2.91,.34,.97,.23,1.83,.62,2.6,1.17,.76,.55,1.39,1.31,1.87,2.26,.48,.95,.73,2.15,.73,3.6Zm-8.6,5.25c.71-.23,1.37-.48,1.97-.75,.6-.27,1.1-.59,1.51-.96,.41-.37,.73-.81,.96-1.32s.34-1.14,.34-1.88c0-1.59-.37-2.73-1.11-3.41s-1.87-1.02-3.4-1.02h-11.28v12.75l11.01-3.41Zm6.42,10.49c0-1.73-.65-3.23-1.95-4.48-1.3-1.25-3.2-1.99-5.7-2.22l-9.79,3.24v10.24h10.36c.94,0,1.85-.12,2.71-.36,.87-.24,1.62-.63,2.26-1.17,.64-.54,1.15-1.24,1.53-2.11,.38-.87,.57-1.91,.57-3.14Z"/>
    <path class="cls-1" d="M146.66,121.14h12.12c2.24,0,4.2,.42,5.87,1.26s3.06,1.99,4.17,3.46c1.11,1.46,1.93,3.21,2.47,5.23,.54,2.02,.8,4.21,.8,6.57s-.34,4.69-1.03,6.72c-.69,2.03-1.68,3.78-2.96,5.25-1.29,1.46-2.86,2.61-4.7,3.43s-3.93,1.24-6.25,1.24h-10.48v-33.15Zm3.82,29.65h6.58c1.76,0,3.33-.35,4.7-1.04,1.38-.7,2.55-1.65,3.52-2.86s1.71-2.62,2.22-4.22c.51-1.61,.76-3.32,.76-5.14s-.2-3.48-.61-5.06c-.41-1.58-1.03-2.94-1.87-4.1-.84-1.15-1.91-2.06-3.19-2.73-1.29-.67-2.82-1-4.61-1h-7.5v26.15Z"/>
    <path class="cls-1" d="M180.54,121.14v33.15h-3.82v-33.15h3.82Z"/>
    <path class="cls-1" d="M187.19,147.21c.66,.68,1.42,1.29,2.26,1.83,.84,.54,1.73,1.01,2.66,1.41,.93,.4,1.87,.7,2.83,.9,.96,.2,1.87,.3,2.73,.3,2.01-.03,3.64-.51,4.88-1.43s1.85-2.37,1.85-4.33c0-.82-.16-1.56-.48-2.2-.32-.64-.78-1.21-1.38-1.71-.6-.5-1.33-.94-2.2-1.32-.87-.38-1.85-.75-2.94-1.09-1.94-.6-3.61-1.23-5.03-1.9s-2.59-1.42-3.52-2.24c-.93-.82-1.62-1.75-2.07-2.77-.45-1.02-.67-2.22-.67-3.58,0-1.45,.27-2.73,.82-3.84,.55-1.11,1.3-2.03,2.26-2.75s2.08-1.27,3.37-1.64c1.29-.37,2.66-.55,4.11-.55,1.81,0,3.61,.35,5.39,1.04,1.78,.7,3.45,1.71,5.01,3.05l-1.53,3.07c-.56-.48-1.19-.94-1.87-1.37-.69-.43-1.41-.81-2.16-1.15-.75-.34-1.52-.61-2.29-.81-.78-.2-1.54-.31-2.28-.34-.87-.03-1.71,.04-2.54,.21-.83,.17-1.58,.46-2.24,.87-.66,.41-1.2,.95-1.61,1.62-.41,.67-.61,1.49-.61,2.45,0,.91,.13,1.69,.38,2.33s.67,1.21,1.24,1.71c.57,.5,1.32,.95,2.24,1.37,.92,.41,2.05,.83,3.4,1.26,1.68,.57,3.21,1.16,4.57,1.77,1.36,.61,2.52,1.31,3.48,2.09,.96,.78,1.69,1.67,2.2,2.67,.51,1,.76,2.15,.76,3.46,0,1.71-.27,3.17-.82,4.37-.55,1.21-1.31,2.2-2.28,2.96-.97,.77-2.13,1.33-3.48,1.69-1.35,.36-2.83,.53-4.44,.53-2.04,0-4.09-.39-6.14-1.17-2.05-.78-3.89-1.9-5.53-3.35l1.64-3.41Z"/>
    <path class="cls-1" d="M216.67,121.14v33.15h-3.82v-33.15h3.82Z"/>
    <path class="cls-1" d="M236.83,155.14c-2.01,0-3.94-.41-5.77-1.22-1.83-.81-3.45-1.98-4.84-3.5-1.39-1.52-2.5-3.36-3.33-5.5-.83-2.15-1.24-4.56-1.24-7.23,0-2.53,.39-4.86,1.17-7,.78-2.13,1.84-3.97,3.19-5.52,1.35-1.55,2.96-2.76,4.82-3.63,1.86-.87,3.86-1.3,6-1.3,2.63,0,5.05,.69,7.29,2.07,2.23,1.38,4.08,3.31,5.56,5.78l-2.75,2.22c-1.07-1.93-2.48-3.52-4.23-4.76-1.75-1.24-3.74-1.86-5.98-1.86-1.61,0-3.1,.37-4.47,1.11-1.38,.74-2.56,1.74-3.56,3.01-1,1.27-1.78,2.74-2.35,4.44-.57,1.69-.86,3.5-.86,5.44s.31,3.8,.92,5.5c.61,1.71,1.44,3.19,2.49,4.44,1.04,1.25,2.25,2.23,3.61,2.94,1.36,.71,2.8,1.07,4.3,1.07,1.61,0,3.04-.28,4.3-.83s2.33-1.33,3.21-2.33c.88-1,1.55-2.19,2.03-3.58,.47-1.39,.71-2.94,.71-4.65h-10.82v-3.5h14.61v1.96c0,2.36-.31,4.54-.94,6.55-.62,2-1.53,3.74-2.72,5.2-1.19,1.46-2.65,2.61-4.4,3.43-1.75,.82-3.73,1.24-5.95,1.24Z"/>
    <path class="cls-1" d="M255.79,121.14h3.82l17.09,26.88v-26.88h3.82v33.15h-3.82l-17.09-27.09v27.09h-3.82v-33.15Z"/>
    <path class="cls-1" d="M306.65,135.6v3.5h-16.56v11.73h17.67v3.46h-21.49v-33.15h21.11v3.5h-17.29v10.96h16.56Z"/>
    <path class="cls-1" d="M312.73,121.14h14.84c1.17,0,2.31,.19,3.4,.55,1.1,.37,2.06,.92,2.91,1.66,.84,.74,1.52,1.67,2.03,2.79,.51,1.12,.76,2.45,.76,3.99,0,1.25-.15,2.33-.46,3.24-.31,.91-.73,1.69-1.28,2.35-.55,.65-1.21,1.2-1.99,1.64-.78,.44-1.63,.82-2.54,1.13l7.57,15.78h-4.02l-7.19-14.76-10.21,2.73v12.03h-3.82v-33.15Zm20.15,9c0-.88-.15-1.66-.46-2.35s-.73-1.26-1.26-1.73c-.54-.47-1.17-.82-1.89-1.07-.73-.24-1.52-.36-2.39-.36h-10.33v13.74l9.83-2.3c2.22-.54,3.86-1.26,4.91-2.15,1.06-.9,1.59-2.16,1.59-3.78Z"/>
  </g>
  <line class="cls-2" x1="19.25" y1="86.62" x2="278.99" y2="86.62"/>
</svg>