<?xml version="1.0" encoding="UTF-8"?>
<svg id="Layer_1" data-name="Layer 1" xmlns="http://www.w3.org/2000/svg" viewBox="0 0 355.07 123.52">
  <defs>
    <style>
      .cls-1 {
        fill: #fff;
      }

      .cls-2 {
        stroke: #439973;
        stroke-miterlimit: 10;
        stroke-width: 2px;
      }

      .cls-2, .cls-3 {
        fill: #439973;
      }
    </style>
  </defs>
  <rect class="cls-3" y="54.15" width="355.07" height="15.22" rx="5.67" ry="5.67"/>
  <g>
    <path class="cls-1" d="M35.1,66.27v-.84l2.6-2.92c.19-.21,.39-.44,.59-.67,.2-.24,.38-.48,.54-.74s.3-.52,.4-.79c.1-.27,.15-.55,.15-.83,0-.65-.15-1.14-.44-1.45-.29-.31-.71-.47-1.24-.47-.24,0-.46,.06-.66,.17-.2,.11-.38,.26-.54,.45-.16,.19-.31,.41-.43,.65-.12,.25-.22,.51-.29,.78l-.85-.54c.22-.79,.57-1.41,1.06-1.85,.49-.44,1.11-.67,1.85-.67,.79,0,1.41,.26,1.86,.77,.46,.51,.68,1.25,.67,2.21,0,.32-.06,.64-.17,.96s-.26,.64-.43,.95-.37,.61-.59,.89c-.22,.29-.44,.55-.66,.8l-1.92,2.15h4.08v1.02h-5.6Z"/>
    <path class="cls-1" d="M43.68,61.51c0-.77,.07-1.46,.22-2.07,.15-.62,.36-1.14,.63-1.57,.27-.43,.6-.76,.99-.99,.39-.23,.81-.34,1.29-.34s.88,.11,1.27,.34c.39,.23,.72,.56,.99,.99,.28,.43,.49,.96,.64,1.57,.15,.62,.23,1.31,.23,2.07s-.07,1.47-.22,2.09c-.15,.62-.35,1.14-.62,1.57s-.6,.76-.99,1c-.39,.23-.82,.35-1.3,.35s-.9-.12-1.29-.35c-.39-.23-.72-.56-.99-1-.27-.43-.48-.96-.63-1.57-.15-.62-.22-1.31-.22-2.09Zm1,0c0,.68,.07,1.27,.2,1.77,.13,.5,.3,.92,.51,1.25,.21,.33,.44,.58,.69,.74s.5,.25,.74,.25c.25,0,.51-.08,.76-.25s.48-.41,.69-.74c.21-.33,.37-.75,.5-1.25,.13-.5,.19-1.09,.19-1.77s-.06-1.25-.19-1.75-.29-.91-.5-1.24c-.21-.33-.44-.58-.69-.74s-.51-.25-.76-.25c-.24,0-.49,.08-.74,.25s-.48,.41-.69,.74c-.21,.33-.38,.74-.51,1.24-.13,.5-.2,1.08-.2,1.75Z"/>
    <path class="cls-1" d="M52.66,61.51c0-.77,.07-1.46,.22-2.07,.15-.62,.36-1.14,.63-1.57,.27-.43,.6-.76,.99-.99,.39-.23,.81-.34,1.29-.34s.88,.11,1.27,.34c.39,.23,.72,.56,.99,.99,.28,.43,.49,.96,.64,1.57,.15,.62,.23,1.31,.23,2.07s-.07,1.47-.22,2.09c-.15,.62-.35,1.14-.62,1.57s-.6,.76-.99,1c-.39,.23-.82,.35-1.3,.35s-.9-.12-1.29-.35c-.39-.23-.72-.56-.99-1-.27-.43-.48-.96-.63-1.57-.15-.62-.22-1.31-.22-2.09Zm1,0c0,.68,.07,1.27,.2,1.77,.13,.5,.3,.92,.51,1.25,.21,.33,.44,.58,.69,.74s.5,.25,.74,.25c.25,0,.51-.08,.76-.25s.48-.41,.69-.74c.21-.33,.37-.75,.5-1.25,.13-.5,.19-1.09,.19-1.77s-.06-1.25-.19-1.75-.29-.91-.5-1.24c-.21-.33-.44-.58-.69-.74s-.51-.25-.76-.25c-.24,0-.49,.08-.74,.25s-.48,.41-.69,.74c-.21,.33-.38,.74-.51,1.24-.13,.5-.2,1.08-.2,1.75Z"/>
    <path class="cls-1" d="M63.83,66.27h-1.05l3.43-8.5h-4.14v-1h5.41v.47l-3.65,9.04Z"/>
    <path class="cls-1" d="M72.31,66.36h-1.1v-1.31h1.1v1.31Z"/>
    <path class="cls-1" d="M79.61,61.51c0-.77,.07-1.46,.22-2.07,.15-.62,.36-1.14,.63-1.57,.27-.43,.6-.76,.99-.99,.39-.23,.81-.34,1.29-.34s.88,.11,1.27,.34c.39,.23,.72,.56,.99,.99,.28,.43,.49,.96,.64,1.57,.15,.62,.23,1.31,.23,2.07s-.07,1.47-.22,2.09c-.15,.62-.35,1.14-.62,1.57s-.6,.76-.99,1c-.39,.23-.82,.35-1.3,.35s-.9-.12-1.29-.35c-.39-.23-.72-.56-.99-1-.27-.43-.48-.96-.63-1.57-.15-.62-.22-1.31-.22-2.09Zm1,0c0,.68,.07,1.27,.2,1.77,.13,.5,.3,.92,.51,1.25,.21,.33,.44,.58,.69,.74s.5,.25,.74,.25c.25,0,.51-.08,.76-.25s.48-.41,.69-.74c.21-.33,.37-.75,.5-1.25,.13-.5,.19-1.09,.19-1.77s-.06-1.25-.19-1.75-.29-.91-.5-1.24c-.21-.33-.44-.58-.69-.74s-.51-.25-.76-.25c-.24,0-.49,.08-.74,.25s-.48,.41-.69,.74c-.21,.33-.38,.74-.51,1.24-.13,.5-.2,1.08-.2,1.75Z"/>
    <path class="cls-1" d="M89,66.27v-.84l2.6-2.92c.19-.21,.39-.44,.59-.67,.2-.24,.38-.48,.54-.74s.3-.52,.4-.79c.1-.27,.15-.55,.15-.83,0-.65-.15-1.14-.44-1.45-.29-.31-.71-.47-1.24-.47-.24,0-.46,.06-.66,.17-.2,.11-.38,.26-.54,.45-.16,.19-.31,.41-.43,.65-.12,.25-.22,.51-.29,.78l-.85-.54c.22-.79,.57-1.41,1.06-1.85,.49-.44,1.11-.67,1.85-.67,.79,0,1.41,.26,1.86,.77,.46,.51,.68,1.25,.67,2.21,0,.32-.06,.64-.17,.96s-.26,.64-.43,.95-.37,.61-.59,.89c-.22,.29-.44,.55-.66,.8l-1.92,2.15h4.08v1.02h-5.6Z"/>
  </g>
  <g>
    <path class="cls-1" d="M153.54,66.55v-.84l2.6-2.92c.19-.21,.39-.44,.59-.67,.2-.24,.38-.48,.54-.74s.3-.52,.4-.79c.1-.27,.15-.55,.15-.83,0-.65-.15-1.14-.44-1.45-.29-.31-.71-.47-1.24-.47-.24,0-.46,.06-.66,.17-.2,.11-.38,.26-.54,.45-.16,.19-.31,.41-.43,.65-.12,.25-.22,.51-.29,.78l-.85-.54c.22-.79,.57-1.41,1.06-1.85,.49-.44,1.11-.67,1.85-.67,.79,0,1.41,.26,1.86,.77,.46,.51,.68,1.25,.67,2.21,0,.32-.06,.64-.17,.96s-.26,.64-.43,.95-.37,.61-.59,.89c-.22,.29-.44,.55-.66,.8l-1.92,2.15h4.08v1.02h-5.6Z"/>
    <path class="cls-1" d="M162.11,61.79c0-.77,.07-1.46,.22-2.07,.15-.62,.36-1.14,.63-1.57,.27-.43,.6-.76,.99-.99,.39-.23,.81-.34,1.29-.34s.88,.11,1.27,.34c.39,.23,.72,.56,.99,.99,.28,.43,.49,.96,.64,1.57,.15,.62,.23,1.31,.23,2.07s-.07,1.47-.22,2.09c-.15,.62-.35,1.14-.62,1.57s-.6,.76-.99,1c-.39,.23-.82,.35-1.3,.35s-.9-.12-1.29-.35c-.39-.23-.72-.56-.99-1-.27-.43-.48-.96-.63-1.57-.15-.62-.22-1.31-.22-2.09Zm1,0c0,.68,.07,1.27,.2,1.77,.13,.5,.3,.92,.51,1.25,.21,.33,.44,.58,.69,.74s.5,.25,.74,.25c.25,0,.51-.08,.76-.25s.48-.41,.69-.74c.21-.33,.37-.75,.5-1.25,.13-.5,.19-1.09,.19-1.77s-.06-1.25-.19-1.75-.29-.91-.5-1.24c-.21-.33-.44-.58-.69-.74s-.51-.25-.76-.25c-.24,0-.49,.08-.74,.25s-.48,.41-.69,.74c-.21,.33-.38,.74-.51,1.24-.13,.5-.2,1.08-.2,1.75Z"/>
    <path class="cls-1" d="M171.1,61.79c0-.77,.07-1.46,.22-2.07,.15-.62,.36-1.14,.63-1.57,.27-.43,.6-.76,.99-.99,.39-.23,.81-.34,1.29-.34s.88,.11,1.27,.34c.39,.23,.72,.56,.99,.99,.28,.43,.49,.96,.64,1.57,.15,.62,.23,1.31,.23,2.07s-.07,1.47-.22,2.09c-.15,.62-.35,1.14-.62,1.57s-.6,.76-.99,1c-.39,.23-.82,.35-1.3,.35s-.9-.12-1.29-.35c-.39-.23-.72-.56-.99-1-.27-.43-.48-.96-.63-1.57-.15-.62-.22-1.31-.22-2.09Zm1,0c0,.68,.07,1.27,.2,1.77,.13,.5,.3,.92,.51,1.25,.21,.33,.44,.58,.69,.74s.5,.25,.74,.25c.25,0,.51-.08,.76-.25s.48-.41,.69-.74c.21-.33,.37-.75,.5-1.25,.13-.5,.19-1.09,.19-1.77s-.06-1.25-.19-1.75-.29-.91-.5-1.24c-.21-.33-.44-.58-.69-.74s-.51-.25-.76-.25c-.24,0-.49,.08-.74,.25s-.48,.41-.69,.74c-.21,.33-.38,.74-.51,1.24-.13,.5-.2,1.08-.2,1.75Z"/>
    <path class="cls-1" d="M182.48,66.55l1.59-3.44c-.15,.07-.32,.12-.49,.15-.17,.03-.35,.04-.54,.04-.37,0-.72-.09-1.05-.26-.33-.18-.62-.41-.86-.7-.24-.29-.44-.63-.58-1.02-.14-.38-.21-.78-.21-1.2,0-.52,.08-.99,.23-1.4,.16-.41,.37-.76,.64-1.05,.27-.29,.59-.5,.95-.65,.36-.15,.75-.23,1.16-.23,.37,0,.72,.08,1.06,.23s.64,.37,.89,.64,.46,.62,.61,1.02c.15,.4,.23,.85,.23,1.35,0,.38-.07,.8-.22,1.26s-.35,.99-.6,1.57l-1.66,3.68h-1.15Zm.78-8.74c-.29,0-.55,.06-.78,.19-.24,.13-.44,.29-.61,.5-.17,.21-.3,.45-.39,.72s-.14,.56-.14,.85c0,.31,.04,.6,.13,.87,.09,.27,.22,.5,.38,.7,.17,.2,.37,.36,.6,.47,.24,.11,.5,.17,.8,.17s.56-.06,.79-.19,.42-.29,.57-.5,.27-.44,.35-.71c.08-.26,.12-.54,.12-.81,0-.29-.04-.58-.12-.85-.08-.27-.2-.51-.36-.72-.16-.21-.35-.38-.57-.5s-.48-.19-.77-.19Z"/>
    <path class="cls-1" d="M190.75,66.64h-1.1v-1.31h1.1v1.31Z"/>
    <path class="cls-1" d="M198.05,61.79c0-.77,.07-1.46,.22-2.07,.15-.62,.36-1.14,.63-1.57,.27-.43,.6-.76,.99-.99,.39-.23,.81-.34,1.29-.34s.88,.11,1.27,.34c.39,.23,.72,.56,.99,.99,.28,.43,.49,.96,.64,1.57,.15,.62,.23,1.31,.23,2.07s-.07,1.47-.22,2.09c-.15,.62-.35,1.14-.62,1.57s-.6,.76-.99,1c-.39,.23-.82,.35-1.3,.35s-.9-.12-1.29-.35c-.39-.23-.72-.56-.99-1-.27-.43-.48-.96-.63-1.57-.15-.62-.22-1.31-.22-2.09Zm1,0c0,.68,.07,1.27,.2,1.77,.13,.5,.3,.92,.51,1.25,.21,.33,.44,.58,.69,.74s.5,.25,.74,.25c.25,0,.51-.08,.76-.25s.48-.41,.69-.74c.21-.33,.37-.75,.5-1.25,.13-.5,.19-1.09,.19-1.77s-.06-1.25-.19-1.75-.29-.91-.5-1.24c-.21-.33-.44-.58-.69-.74s-.51-.25-.76-.25c-.24,0-.49,.08-.74,.25s-.48,.41-.69,.74c-.21,.33-.38,.74-.51,1.24-.13,.5-.2,1.08-.2,1.75Z"/>
    <path class="cls-1" d="M207.44,66.55v-.84l2.6-2.92c.19-.21,.39-.44,.59-.67,.2-.24,.38-.48,.54-.74s.3-.52,.4-.79c.1-.27,.16-.55,.16-.83,0-.65-.15-1.14-.44-1.45-.29-.31-.71-.47-1.24-.47-.24,0-.46,.06-.66,.17-.2,.11-.38,.26-.54,.45-.16,.19-.31,.41-.43,.65-.12,.25-.22,.51-.29,.78l-.85-.54c.22-.79,.57-1.41,1.06-1.85,.49-.44,1.11-.67,1.85-.67,.79,0,1.41,.26,1.86,.77,.46,.51,.68,1.25,.67,2.21,0,.32-.06,.64-.17,.96s-.26,.64-.43,.95c-.18,.31-.37,.61-.59,.89-.22,.29-.44,.55-.66,.8l-1.92,2.15h4.08v1.02h-5.6Z"/>
  </g>
  <g>
    <path class="cls-1" d="M273.67,67.05v-.84l2.61-2.92c.19-.21,.39-.44,.59-.67,.2-.24,.38-.48,.54-.74s.3-.52,.4-.79c.1-.27,.15-.55,.15-.83,0-.65-.15-1.14-.44-1.45-.29-.31-.71-.47-1.24-.47-.24,0-.46,.06-.66,.17-.2,.11-.38,.26-.54,.45-.16,.19-.31,.41-.43,.65-.12,.25-.22,.51-.29,.78l-.85-.54c.22-.79,.57-1.41,1.06-1.85,.49-.44,1.11-.67,1.85-.67,.79,0,1.41,.26,1.86,.77s.68,1.25,.67,2.21c0,.32-.06,.64-.17,.96s-.26,.64-.43,.95c-.18,.31-.37,.61-.59,.89-.22,.29-.44,.55-.66,.8l-1.92,2.15h4.08v1.02h-5.6Z"/>
    <path class="cls-1" d="M282.25,62.29c0-.77,.07-1.46,.22-2.07,.15-.62,.36-1.14,.63-1.57,.27-.43,.6-.76,.99-.99,.39-.23,.81-.34,1.29-.34s.88,.11,1.27,.34,.72,.56,.99,.99c.28,.43,.49,.96,.64,1.57,.15,.62,.23,1.31,.23,2.07s-.07,1.47-.22,2.09c-.15,.62-.35,1.14-.62,1.57s-.6,.76-.99,1c-.39,.23-.82,.35-1.3,.35s-.9-.12-1.29-.35c-.39-.23-.72-.56-.99-1-.27-.43-.48-.96-.63-1.57-.15-.62-.22-1.31-.22-2.09Zm1,0c0,.68,.07,1.27,.2,1.77,.13,.5,.3,.92,.51,1.25,.21,.33,.44,.58,.69,.74s.5,.25,.74,.25c.25,0,.51-.08,.76-.25s.48-.41,.69-.74c.21-.33,.37-.75,.5-1.25,.13-.5,.19-1.09,.19-1.77s-.06-1.25-.19-1.75c-.13-.5-.29-.91-.5-1.24-.21-.33-.44-.58-.69-.74s-.51-.25-.76-.25c-.24,0-.49,.08-.74,.25s-.48,.41-.69,.74c-.21,.33-.38,.74-.51,1.24s-.2,1.08-.2,1.75Z"/>
    <path class="cls-1" d="M291.64,67.05v-.84l2.6-2.92c.19-.21,.39-.44,.59-.67,.2-.24,.38-.48,.54-.74s.3-.52,.4-.79c.1-.27,.16-.55,.16-.83,0-.65-.15-1.14-.44-1.45-.29-.31-.71-.47-1.24-.47-.24,0-.46,.06-.66,.17-.2,.11-.38,.26-.54,.45-.16,.19-.31,.41-.43,.65-.12,.25-.22,.51-.29,.78l-.85-.54c.22-.79,.57-1.41,1.06-1.85,.49-.44,1.11-.67,1.85-.67,.79,0,1.41,.26,1.86,.77,.46,.51,.68,1.25,.67,2.21,0,.32-.06,.64-.17,.96s-.26,.64-.43,.95c-.18,.31-.37,.61-.59,.89-.22,.29-.44,.55-.66,.8l-1.92,2.15h4.08v1.02h-5.6Z"/>
    <path class="cls-1" d="M301.38,64.51c.17,.56,.42,1,.73,1.32,.32,.32,.72,.48,1.21,.48,.29,0,.55-.06,.78-.19s.44-.29,.61-.5,.3-.45,.39-.72c.09-.27,.14-.56,.14-.85,0-.34-.05-.65-.14-.93-.09-.28-.23-.52-.4-.72-.17-.2-.38-.36-.63-.47s-.53-.17-.84-.17-.6,.11-.84,.32c-.24,.21-.46,.49-.65,.83h-1.03v-5.36h5.1v1.02h-4.1v3c.5-.55,1.1-.82,1.81-.82,.39,0,.75,.08,1.08,.24,.33,.16,.62,.38,.86,.67,.24,.29,.43,.63,.57,1.03s.21,.85,.21,1.34c0,.43-.06,.85-.19,1.25-.13,.4-.31,.75-.56,1.06-.25,.31-.55,.55-.92,.73-.37,.18-.79,.27-1.27,.27-.76,0-1.38-.21-1.85-.64-.48-.42-.82-1-1.02-1.73l.94-.45Z"/>
    <path class="cls-1" d="M310.88,67.14h-1.1v-1.31h1.1v1.31Z"/>
    <path class="cls-1" d="M318.18,62.29c0-.77,.08-1.46,.22-2.07,.15-.62,.36-1.14,.63-1.57,.27-.43,.6-.76,.99-.99s.82-.34,1.29-.34,.88,.11,1.27,.34c.39,.23,.72,.56,.99,.99,.28,.43,.49,.96,.64,1.57,.15,.62,.23,1.31,.23,2.07s-.07,1.47-.22,2.09c-.15,.62-.35,1.14-.62,1.57s-.6,.76-.99,1c-.39,.23-.82,.35-1.3,.35s-.9-.12-1.29-.35c-.39-.23-.72-.56-.99-1s-.48-.96-.63-1.57c-.15-.62-.22-1.31-.22-2.09Zm1,0c0,.68,.07,1.27,.2,1.77,.13,.5,.3,.92,.51,1.25,.21,.33,.44,.58,.69,.74s.5,.25,.74,.25c.25,0,.51-.08,.76-.25s.48-.41,.69-.74c.21-.33,.37-.75,.5-1.25,.13-.5,.19-1.09,.19-1.77s-.06-1.25-.19-1.75c-.13-.5-.29-.91-.5-1.24-.21-.33-.44-.58-.69-.74s-.51-.25-.76-.25c-.24,0-.49,.08-.74,.25s-.48,.41-.69,.74c-.21,.33-.38,.74-.51,1.24-.13,.5-.2,1.08-.2,1.75Z"/>
    <path class="cls-1" d="M331.03,57.54l-1.59,3.44c.15-.07,.32-.12,.49-.15,.17-.03,.35-.04,.54-.04,.37,0,.72,.09,1.05,.26,.33,.18,.62,.41,.86,.7,.24,.29,.44,.63,.58,1.02,.14,.38,.21,.78,.21,1.2,0,.52-.08,.99-.23,1.4-.16,.41-.37,.76-.64,1.05s-.59,.5-.95,.65c-.36,.15-.75,.23-1.16,.23-.37,0-.73-.08-1.06-.23s-.63-.37-.88-.64-.46-.62-.61-1.02c-.15-.4-.23-.85-.23-1.36,0-.38,.07-.8,.22-1.26,.15-.46,.35-.99,.6-1.57l1.66-3.68h1.15Zm-.78,8.74c.29,0,.55-.06,.78-.19s.44-.29,.61-.5c.17-.21,.3-.45,.39-.72s.14-.56,.14-.85c0-.31-.04-.6-.13-.87-.09-.27-.22-.5-.38-.7-.17-.2-.37-.36-.6-.47s-.5-.17-.8-.17-.56,.06-.79,.19c-.23,.13-.42,.29-.57,.5-.15,.21-.27,.44-.35,.71s-.12,.54-.12,.81c0,.29,.04,.58,.12,.85s.2,.51,.36,.72,.35,.38,.57,.5c.23,.13,.48,.19,.77,.19Z"/>
  </g>
  <path class="cls-1" d="M122.17,62.11l-4.21-4.06,1.85-1.8,4.98,4.84v2.06l-4.98,4.84-1.85-1.8,4.21-4.07Z"/>
  <path class="cls-1" d="M245,61.08l-4.21-4.06,1.85-1.8,4.98,4.84v2.06l-4.98,4.84-1.85-1.8,4.21-4.07Z"/>
  <g>
    <line class="cls-2" x1="63.72" y1="69.37" x2="63.72" y2="122.97"/>
    <ellipse class="cls-2" cx="63.45" cy="120.55" rx="1.77" ry="1.98"/>
  </g>
  <g>
    <line class="cls-2" x1="258.04" y1="69.02" x2="258.04" y2="122.61"/>
    <ellipse class="cls-2" cx="257.77" cy="120.19" rx="1.77" ry="1.98"/>
  </g>
  <g>
    <line class="cls-2" x1="179.04" y1="54.15" x2="179.04" y2=".56"/>
    <ellipse class="cls-2" cx="179.31" cy="2.98" rx="1.77" ry="1.98"/>
  </g>
</svg>