<?xml version="1.0" encoding="UTF-8"?>
<svg id="Layer_1" data-name="Layer 1" xmlns="http://www.w3.org/2000/svg" xmlns:xlink="http://www.w3.org/1999/xlink" viewBox="0 0 333.25 109.69">
  <defs>
    <style>
      .cls-1 {
        fill: url(#linear-gradient-2);
      }

      .cls-2 {
        fill: url(#linear-gradient-17);
      }

      .cls-3 {
        fill: url(#linear-gradient-15);
      }

      .cls-4 {
        fill: url(#linear-gradient-18);
      }

      .cls-5 {
        fill: url(#linear-gradient-14);
      }

      .cls-6 {
        fill: url(#linear-gradient-20);
      }

      .cls-7 {
        fill: url(#linear-gradient-6);
      }

      .cls-8 {
        fill: url(#linear-gradient-11);
      }

      .cls-9 {
        fill: url(#linear-gradient-10);
      }

      .cls-10 {
        fill: url(#linear-gradient-16);
      }

      .cls-11 {
        fill: url(#linear-gradient-21);
      }

      .cls-12 {
        fill: url(#linear-gradient-5);
      }

      .cls-13 {
        fill: url(#linear-gradient-7);
      }

      .cls-14 {
        fill: url(#linear-gradient-9);
      }

      .cls-15 {
        fill: url(#linear-gradient-22);
      }

      .cls-16 {
        fill: url(#linear-gradient-3);
      }

      .cls-17 {
        fill: url(#linear-gradient);
      }

      .cls-18 {
        fill: url(#linear-gradient-19);
      }

      .cls-19 {
        fill: url(#linear-gradient-4);
      }

      .cls-20 {
        fill: url(#linear-gradient-8);
      }

      .cls-21 {
        fill: url(#linear-gradient-12);
      }

      .cls-22 {
        fill: url(#linear-gradient-13);
      }
    </style>
    <linearGradient id="linear-gradient" x1="23.4" y1="84.77" x2="24.55" y2="25.02" gradientUnits="userSpaceOnUse">
      <stop offset="0" stop-color="#77b577"/>
      <stop offset=".31" stop-color="#73b376"/>
      <stop offset=".56" stop-color="#69ad75"/>
      <stop offset=".8" stop-color="#58a474"/>
      <stop offset="1" stop-color="#439973"/>
    </linearGradient>
    <linearGradient id="linear-gradient-2" x1="4.77" y1="94.04" x2="44.01" y2="94.04" gradientUnits="userSpaceOnUse">
      <stop offset="0" stop-color="#eeea9d"/>
      <stop offset="1" stop-color="#aece7a"/>
    </linearGradient>
    <linearGradient id="linear-gradient-3" y1="75.84" y2="75.84" xlink:href="#linear-gradient-2"/>
    <linearGradient id="linear-gradient-4" y1="57.38" y2="57.38" xlink:href="#linear-gradient-2"/>
    <linearGradient id="linear-gradient-5" y1="39.44" y2="39.44" xlink:href="#linear-gradient-2"/>
    <linearGradient id="linear-gradient-6" x1="168.03" y1="-.71" x2="167.15" y2="59.04" xlink:href="#linear-gradient"/>
    <linearGradient id="linear-gradient-7" x1="148.04" y1="94.04" x2="187.27" y2="94.04" xlink:href="#linear-gradient-2"/>
    <linearGradient id="linear-gradient-8" x1="148.04" y1="75.84" x2="187.27" y2="75.84" xlink:href="#linear-gradient-2"/>
    <linearGradient id="linear-gradient-9" x1="148.04" y1="57.38" x2="187.27" y2="57.38" xlink:href="#linear-gradient-2"/>
    <linearGradient id="linear-gradient-10" x1="148.04" y1="39.44" x2="187.27" y2="39.44" xlink:href="#linear-gradient-2"/>
    <linearGradient id="linear-gradient-11" x1="237.33" y1="96.89" x2="238.03" y2="22.05" xlink:href="#linear-gradient"/>
    <linearGradient id="linear-gradient-12" x1="218.57" y1="94.04" x2="257.81" y2="94.04" xlink:href="#linear-gradient-2"/>
    <linearGradient id="linear-gradient-13" x1="218.57" y1="75.84" x2="257.81" y2="75.84" xlink:href="#linear-gradient-2"/>
    <linearGradient id="linear-gradient-14" x1="310.27" y1="-.71" x2="309.39" y2="59.04" xlink:href="#linear-gradient"/>
    <linearGradient id="linear-gradient-15" x1="290.28" y1="94.04" x2="329.51" y2="94.04" xlink:href="#linear-gradient-2"/>
    <linearGradient id="linear-gradient-16" x1="290.28" y1="75.84" x2="329.51" y2="75.84" xlink:href="#linear-gradient-2"/>
    <linearGradient id="linear-gradient-17" x1="290.28" y1="57.38" x2="329.51" y2="57.38" xlink:href="#linear-gradient-2"/>
    <linearGradient id="linear-gradient-18" x1="290.28" y1="39.44" x2="329.51" y2="39.44" xlink:href="#linear-gradient-2"/>
    <linearGradient id="linear-gradient-19" x1="96.81" y1="-.71" x2="95.93" y2="59.04" xlink:href="#linear-gradient"/>
    <linearGradient id="linear-gradient-20" x1="76.82" y1="94.04" x2="116.05" y2="94.04" xlink:href="#linear-gradient-2"/>
    <linearGradient id="linear-gradient-21" x1="76.82" y1="75.84" x2="116.05" y2="75.84" xlink:href="#linear-gradient-2"/>
    <linearGradient id="linear-gradient-22" x1="76.82" y1="57.38" x2="116.05" y2="57.38" xlink:href="#linear-gradient-2"/>
  </defs>
  <g>
    <path class="cls-17" d="M8.65,9.78V3.98S7.69,.3,14.07,.11h19.65c.05,0,.11,0,.16-.02,.54-.14,3.79-.73,3.7,4.86l.1,4.06s9.29-.97,9.29,6.58l.77,87.06s.48,6.96-5.8,6.96H7.49S.14,111.16,.14,100.32V19.01c0-.19-.01-.37-.04-.56-.22-1.39-.9-8.67,8.55-8.67Z"/>
    <rect class="cls-1" x="4.77" y="85.98" width="39.24" height="16.12" rx="3.36" ry="3.36"/>
    <rect class="cls-16" x="4.77" y="67.78" width="39.24" height="16.12" rx="3.36" ry="3.36"/>
    <rect class="cls-19" x="4.77" y="49.32" width="39.24" height="16.12" rx="3.36" ry="3.36"/>
    <rect class="cls-12" x="4.77" y="31.38" width="39.24" height="16.12" rx="3.36" ry="3.36"/>
  </g>
  <g>
    <path class="cls-7" d="M151.92,9.78V3.98s-.97-3.68,5.42-3.87h19.65c.05,0,.11,0,.16-.02,.54-.14,3.79-.73,3.7,4.86l.1,4.06s9.29-.97,9.29,6.58l.77,87.06s.48,6.96-5.8,6.96h-34.44s-7.35,1.55-7.35-9.29V19.01c0-.19-.01-.37-.04-.56-.22-1.39-.9-8.67,8.55-8.67Z"/>
    <rect class="cls-13" x="148.04" y="85.98" width="39.24" height="16.12" rx="3.36" ry="3.36"/>
    <rect class="cls-20" x="148.04" y="67.78" width="39.24" height="16.12" rx="3.36" ry="3.36"/>
    <rect class="cls-14" x="148.04" y="49.32" width="39.24" height="16.12" rx="3.36" ry="3.36"/>
    <rect class="cls-9" x="148.04" y="31.38" width="39.24" height="16.12" rx="3.36" ry="3.36"/>
  </g>
  <g>
    <path class="cls-8" d="M222.46,9.78V3.98s-.97-3.68,5.42-3.87h19.65c.05,0,.11,0,.16-.02,.54-.14,3.79-.73,3.7,4.86l.1,4.06s9.29-.97,9.29,6.58l.77,87.06s.48,6.96-5.8,6.96h-34.44s-7.35,1.55-7.35-9.29V19.01c0-.19-.01-.37-.04-.56-.22-1.39-.9-8.67,8.55-8.67Z"/>
    <rect class="cls-21" x="218.57" y="85.98" width="39.24" height="16.12" rx="3.36" ry="3.36"/>
    <rect class="cls-22" x="218.57" y="67.78" width="39.24" height="16.12" rx="3.36" ry="3.36"/>
  </g>
  <g>
    <path class="cls-5" d="M294.16,9.78V3.98s-.97-3.68,5.42-3.87h19.65c.05,0,.11,0,.16-.02,.54-.14,3.79-.73,3.7,4.86l.1,4.06s9.29-.97,9.29,6.58l.77,87.06s.48,6.96-5.8,6.96h-34.44s-7.35,1.55-7.35-9.29V19.01c0-.19-.01-.37-.04-.56-.22-1.39-.9-8.67,8.55-8.67Z"/>
    <rect class="cls-3" x="290.28" y="85.98" width="39.24" height="16.12" rx="3.36" ry="3.36"/>
    <rect class="cls-10" x="290.28" y="67.78" width="39.24" height="16.12" rx="3.36" ry="3.36"/>
    <rect class="cls-2" x="290.28" y="49.32" width="39.24" height="16.12" rx="3.36" ry="3.36"/>
    <rect class="cls-4" x="290.28" y="31.38" width="39.24" height="16.12" rx="3.36" ry="3.36"/>
  </g>
  <g>
    <path class="cls-18" d="M80.7,9.78V3.98s-.97-3.68,5.42-3.87h19.65c.05,0,.11,0,.16-.02,.54-.14,3.79-.73,3.7,4.86l.1,4.06s9.29-.97,9.29,6.58l.77,87.06s.48,6.96-5.8,6.96h-34.44s-7.35,1.55-7.35-9.29V19.01c0-.19-.01-.37-.04-.56-.22-1.39-.9-8.67,8.55-8.67Z"/>
    <rect class="cls-6" x="76.82" y="85.98" width="39.24" height="16.12" rx="3.36" ry="3.36"/>
    <rect class="cls-11" x="76.82" y="67.78" width="39.24" height="16.12" rx="3.36" ry="3.36"/>
    <rect class="cls-15" x="76.82" y="49.32" width="39.24" height="16.12" rx="3.36" ry="3.36"/>
  </g>
</svg>