<?xml version="1.0" encoding="UTF-8"?>
<svg id="Layer_1" data-name="Layer 1" xmlns="http://www.w3.org/2000/svg" viewBox="0 0 739.55 110.32">
  <defs>
    <style>
      .cls-1 {
        fill: none;
        stroke: #e4e5e6;
        stroke-miterlimit: 10;
        stroke-width: 5px;
      }

      .cls-2 {
        opacity: .46;
      }
    </style>
  </defs>
  <g class="cls-2">
    <path class="cls-1" d="M7.75,13.88h25.48c2.01,0,3.96,.39,5.84,1.16,1.88,.77,3.55,1.93,4.99,3.47,1.44,1.54,2.6,3.48,3.48,5.82,.88,2.34,1.31,5.11,1.31,8.31s-.38,5.78-1.15,7.91c-.77,2.13-1.82,3.91-3.15,5.33-1.34,1.42-2.93,2.56-4.79,3.42-1.86,.86-3.86,1.62-6.01,2.27l-19.44,6.31v25.06H7.75V13.88Zm34.61,18.75c0-1.84-.26-3.47-.79-4.89-.53-1.42-1.25-2.62-2.17-3.6s-2-1.72-3.25-2.22c-1.25-.5-2.62-.76-4.1-.76H14.32v28.62l16.88-4.8c3.81-1.12,6.62-2.62,8.44-4.49,1.82-1.87,2.73-4.49,2.73-7.87Z"/>
    <path class="cls-1" d="M57.4,13.88h25.48c2.01,0,3.96,.39,5.84,1.16,1.88,.77,3.55,1.93,4.99,3.47,1.44,1.54,2.6,3.48,3.48,5.82,.88,2.34,1.31,5.11,1.31,8.31,0,2.61-.26,4.86-.79,6.75-.53,1.9-1.26,3.53-2.2,4.89-.94,1.36-2.08,2.5-3.41,3.42-1.34,.92-2.79,1.7-4.37,2.36l13,32.88h-6.9l-12.35-30.75-17.53,5.69v25.06h-6.57V13.88Zm34.61,18.75c0-1.84-.26-3.47-.79-4.89-.53-1.42-1.25-2.62-2.17-3.6s-2-1.72-3.25-2.22c-1.25-.5-2.62-.76-4.1-.76h-17.73v28.62l16.88-4.8c3.81-1.12,6.62-2.62,8.44-4.49,1.82-1.87,2.73-4.49,2.73-7.87Z"/>
    <path class="cls-1" d="M105.99,48.27c0-5.57,.69-10.61,2.07-15.11,1.38-4.5,3.25-8.31,5.61-11.42,2.36-3.11,5.1-5.51,8.21-7.2,3.11-1.69,6.41-2.53,9.92-2.53s6.88,.84,10.01,2.53c3.13,1.69,5.87,4.09,8.21,7.2,2.34,3.11,4.2,6.92,5.58,11.42,1.38,4.5,2.07,9.54,2.07,15.11s-.69,10.7-2.07,15.2c-1.38,4.5-3.24,8.33-5.58,11.46-2.34,3.14-5.08,5.55-8.21,7.24-3.13,1.69-6.47,2.53-10.01,2.53s-6.81-.84-9.92-2.53c-3.11-1.69-5.84-4.1-8.21-7.24-2.36-3.14-4.24-6.96-5.61-11.46-1.38-4.5-2.07-9.57-2.07-15.2Zm6.57,0c0,4.74,.54,8.92,1.61,12.53,1.07,3.61,2.51,6.67,4.3,9.15,1.79,2.49,3.84,4.37,6.14,5.64,2.3,1.27,4.7,1.91,7.19,1.91s4.9-.64,7.22-1.91c2.32-1.28,4.39-3.16,6.21-5.64,1.82-2.49,3.26-5.54,4.33-9.15,1.07-3.61,1.61-7.79,1.61-12.53s-.57-8.74-1.71-12.35c-1.14-3.61-2.63-6.65-4.47-9.11-1.84-2.46-3.92-4.32-6.24-5.6-2.32-1.27-4.64-1.91-6.96-1.91s-4.63,.64-6.93,1.91c-2.3,1.27-4.36,3.14-6.17,5.6-1.82,2.46-3.29,5.5-4.43,9.11-1.14,3.62-1.71,7.73-1.71,12.35Z"/>
    <path class="cls-1" d="M166.73,70.14c1.09,1.78,2.53,3.39,4.3,4.84s3.6,2.18,5.48,2.18c4.2,0,7.27-1.5,9.19-4.49,1.93-2.99,2.89-7.42,2.89-13.29V13.88h6.57V58.85c0,4.03-.36,7.67-1.08,10.93s-1.85,6.01-3.38,8.27c-1.53,2.25-3.47,3.95-5.81,5.11-2.34,1.16-5.16,1.67-8.44,1.55-2.45-.12-4.81-.92-7.06-2.4-2.26-1.48-4.32-3.32-6.21-5.51l3.55-6.67Z"/>
    <path class="cls-1" d="M240.02,44.01v7.29h-28.43v24.44h30.34v7.2h-36.91V13.88h36.25v7.29h-29.68v22.84h28.43Z"/>
    <path class="cls-1" d="M249.14,48.36c0-5.27,.67-10.13,2-14.58,1.33-4.44,3.16-8.28,5.48-11.51,2.32-3.23,5.08-5.75,8.27-7.55,3.2-1.81,6.63-2.71,10.31-2.71,4.51,0,8.68,1.44,12.51,4.31,3.83,2.87,7.02,6.89,9.55,12.04l-4.73,4.62c-1.84-4.03-4.26-7.33-7.26-9.91-3-2.58-6.43-3.87-10.28-3.87-2.76,0-5.32,.77-7.68,2.31-2.36,1.54-4.4,3.63-6.11,6.27-1.71,2.64-3.05,5.72-4.04,9.24-.98,3.53-1.48,7.3-1.48,11.33s.51,7.91,1.54,11.46c1.03,3.56,2.46,6.64,4.3,9.24,1.84,2.61,4.04,4.65,6.6,6.13,2.56,1.48,5.37,2.22,8.44,2.22,3.55,0,6.69-1.27,9.42-3.82,2.74-2.55,5.04-5.92,6.93-10.13l4.6,4.89c-2.45,5.04-5.58,9.02-9.39,11.95-3.81,2.93-8.12,4.4-12.94,4.4-3.46,0-6.76-.84-9.92-2.53-3.15-1.69-5.92-4.12-8.31-7.29-2.39-3.17-4.29-6.99-5.71-11.47-1.42-4.47-2.13-9.49-2.13-15.06Z"/>
    <path class="cls-1" d="M326.63,21.16v61.77h-6.57V21.16h-17.93v-7.29h42.42v7.29h-17.93Z"/>
    <path class="cls-1" d="M395.65,27.74l-10.24,55.19h-6.44l-14.12-69.06h6.37l10.97,55.1,10.18-55.1h6.63l10.11,55.1,11.03-55.1h6.37l-14.12,69.06h-6.44l-10.31-55.19Z"/>
    <path class="cls-1" d="M467.69,44.01v7.29h-28.43v24.44h30.34v7.2h-36.91V13.88h36.25v7.29h-29.68v22.84h28.43Z"/>
    <path class="cls-1" d="M518.38,29.25c0,3.67-.62,6.74-1.87,9.2-1.25,2.46-3.32,4.46-6.21,6,1.62,.48,3.1,1.24,4.43,2.31,1.33,1.07,2.48,2.39,3.45,3.96,.96,1.57,1.71,3.38,2.23,5.42,.52,2.04,.79,4.28,.79,6.71,0,2.84-.38,5.5-1.15,7.95-.77,2.46-1.83,4.58-3.18,6.35-1.36,1.78-2.97,3.18-4.83,4.22-1.86,1.04-3.89,1.56-6.07,1.56h-27.78V13.88h26.27c1.66,0,3.33,.24,4.99,.71,1.66,.47,3.15,1.29,4.47,2.44s2.39,2.73,3.22,4.71c.83,1.99,1.25,4.49,1.25,7.51Zm-14.78,10.93c1.22-.47,2.35-.99,3.38-1.56,1.03-.56,1.89-1.23,2.59-2,.7-.77,1.25-1.69,1.64-2.76,.39-1.07,.59-2.37,.59-3.91,0-3.32-.63-5.69-1.9-7.11-1.27-1.42-3.22-2.13-5.84-2.13h-19.37v26.57l18.91-7.11Zm11.03,21.86c0-3.61-1.12-6.72-3.35-9.33-2.23-2.61-5.49-4.15-9.78-4.62l-16.81,6.75v21.33h17.8c1.62,0,3.17-.25,4.66-.75,1.49-.5,2.78-1.32,3.87-2.44,1.09-1.12,1.97-2.59,2.63-4.4,.66-1.81,.99-3.98,.99-6.53Z"/>
    <path class="cls-1" d="M545.5,13.88h25.48c2.01,0,3.96,.39,5.84,1.16,1.88,.77,3.55,1.93,4.99,3.47,1.45,1.54,2.6,3.48,3.48,5.82,.88,2.34,1.31,5.11,1.31,8.31s-.38,5.78-1.15,7.91c-.77,2.13-1.82,3.91-3.15,5.33-1.34,1.42-2.93,2.56-4.79,3.42-1.86,.86-3.86,1.62-6.01,2.27l-19.44,6.31v25.06h-6.57V13.88Zm34.61,18.75c0-1.84-.26-3.47-.79-4.89-.53-1.42-1.25-2.62-2.17-3.6s-2-1.72-3.25-2.22c-1.25-.5-2.62-.76-4.1-.76h-17.73v28.62l16.88-4.8c3.81-1.12,6.62-2.62,8.44-4.49,1.82-1.87,2.73-4.49,2.73-7.87Z"/>
    <path class="cls-1" d="M608.34,13.88h6.7l19.96,69.06h-6.83l-7.29-25.24-20.69,7.82-4.99,17.42h-6.83l19.96-69.06Zm-5.91,43.82l16.68-6.31-7.42-25.95-9.26,32.26Z"/>
    <path class="cls-1" d="M664.29,84.71c-3.46,0-6.76-.84-9.92-2.53-3.15-1.69-5.92-4.12-8.31-7.29-2.39-3.17-4.29-6.99-5.71-11.47-1.42-4.47-2.13-9.49-2.13-15.06,0-5.27,.67-10.13,2-14.58,1.33-4.44,3.16-8.28,5.48-11.51,2.32-3.23,5.08-5.75,8.27-7.55,3.2-1.81,6.63-2.71,10.31-2.71,4.51,0,8.68,1.44,12.51,4.31,3.83,2.87,7.02,6.89,9.55,12.04l-4.73,4.62c-1.84-4.03-4.26-7.33-7.26-9.91-3-2.58-6.42-3.87-10.28-3.87-2.76,0-5.32,.77-7.68,2.31-2.36,1.54-4.4,3.63-6.11,6.27-1.71,2.64-3.05,5.72-4.04,9.24-.99,3.53-1.48,7.3-1.48,11.33s.53,7.91,1.58,11.46c1.05,3.56,2.47,6.64,4.27,9.24,1.79,2.61,3.86,4.65,6.21,6.13,2.34,1.48,4.8,2.22,7.39,2.22,2.76,0,5.22-.58,7.39-1.73s4.01-2.77,5.52-4.84c1.51-2.07,2.67-4.56,3.48-7.47,.81-2.9,1.21-6.13,1.21-9.69h-18.58v-7.29h25.09v4.09c0,4.92-.54,9.47-1.61,13.64-1.07,4.18-2.63,7.79-4.66,10.84-2.04,3.05-4.55,5.43-7.55,7.15-3,1.72-6.4,2.58-10.21,2.58Z"/>
    <path class="cls-1" d="M731.86,44.01v7.29h-28.43v24.44h30.34v7.2h-36.91V13.88h36.25v7.29h-29.68v22.84h28.43Z"/>
  </g>
</svg>