<?xml version="1.0" encoding="UTF-8"?>
<svg id="Layer_1" data-name="Layer 1" xmlns="http://www.w3.org/2000/svg" viewBox="0 0 410 144.83">
  <defs>
    <style>
      .cls-1 {
        fill: #fff;
      }

      .cls-2 {
        stroke: #439973;
        stroke-miterlimit: 10;
        stroke-width: 2px;
      }

      .cls-2, .cls-3 {
        fill: #439973;
      }
    </style>
  </defs>
  <g>
    <line class="cls-2" x1="60.98" y1="78.45" x2="60.98" y2="144.37"/>
    <ellipse class="cls-2" cx="60.69" cy="141.39" rx="1.97" ry="2.43"/>
  </g>
  <g>
    <line class="cls-2" x1="241.32" y1="78.01" x2="241.32" y2="143.94"/>
    <ellipse class="cls-2" cx="241.02" cy="140.96" rx="1.97" ry="2.43"/>
  </g>
  <g>
    <line class="cls-2" x1="155.5" y1="67.52" x2="155.5" y2="1.59"/>
    <ellipse class="cls-2" cx="155.8" cy="4.57" rx="1.97" ry="2.43"/>
  </g>
  <g>
    <line class="cls-2" x1="345.53" y1="66.38" x2="345.53" y2=".45"/>
    <ellipse class="cls-2" cx="345.83" cy="3.43" rx="1.97" ry="2.43"/>
  </g>
  <g>
    <rect class="cls-3" y="61.13" width="410" height="21.39" rx="5.67" ry="5.67"/>
    <g>
      <path class="cls-1" d="M15.05,76.98v-.92l2.51-3.18c.19-.23,.38-.47,.57-.73,.19-.26,.37-.53,.52-.8s.29-.57,.39-.86c.1-.29,.15-.59,.15-.9,0-.71-.14-1.23-.42-1.58-.28-.34-.68-.51-1.19-.51-.23,0-.44,.06-.64,.18-.19,.12-.37,.28-.52,.49s-.3,.44-.41,.71-.21,.55-.28,.84l-.82-.59c.21-.86,.55-1.53,1.02-2.02,.47-.48,1.07-.72,1.79-.72,.76,0,1.36,.28,1.8,.83,.44,.55,.66,1.35,.65,2.4,0,.35-.05,.69-.16,1.04-.11,.35-.25,.69-.42,1.03s-.36,.66-.57,.97c-.21,.31-.42,.6-.64,.86l-1.85,2.34h3.94v1.1h-5.4Z"/>
      <path class="cls-1" d="M23.32,71.81c0-.83,.07-1.58,.22-2.25,.14-.67,.35-1.24,.61-1.71,.26-.47,.58-.83,.95-1.08,.37-.25,.79-.37,1.24-.37s.85,.12,1.22,.37c.37,.25,.69,.61,.96,1.08,.27,.47,.47,1.04,.62,1.71,.15,.67,.22,1.42,.22,2.25s-.07,1.6-.21,2.27c-.14,.67-.34,1.24-.6,1.71-.26,.47-.58,.83-.95,1.08-.38,.25-.79,.38-1.26,.38s-.87-.13-1.24-.38c-.37-.25-.69-.61-.95-1.08-.26-.47-.47-1.04-.61-1.71-.14-.67-.22-1.43-.22-2.27Zm.96,0c0,.74,.06,1.38,.19,1.92,.13,.55,.29,1,.49,1.36,.2,.36,.42,.63,.66,.81,.24,.18,.48,.27,.71,.27,.24,0,.49-.09,.73-.27,.24-.18,.47-.45,.66-.81,.2-.36,.36-.81,.48-1.36,.12-.55,.18-1.19,.18-1.92s-.06-1.36-.18-1.9c-.12-.54-.28-.99-.48-1.35-.2-.36-.42-.63-.66-.8-.24-.18-.49-.27-.73-.27-.23,0-.47,.09-.71,.27-.24,.18-.47,.45-.66,.8-.2,.36-.36,.81-.49,1.35-.13,.54-.19,1.18-.19,1.9Z"/>
      <path class="cls-1" d="M31.98,71.81c0-.83,.07-1.58,.22-2.25,.14-.67,.35-1.24,.61-1.71,.26-.47,.58-.83,.95-1.08,.37-.25,.79-.37,1.24-.37s.85,.12,1.22,.37c.37,.25,.69,.61,.96,1.08,.27,.47,.47,1.04,.62,1.71,.15,.67,.22,1.42,.22,2.25s-.07,1.6-.21,2.27c-.14,.67-.34,1.24-.6,1.71-.26,.47-.58,.83-.95,1.08-.38,.25-.79,.38-1.26,.38s-.87-.13-1.24-.38c-.37-.25-.69-.61-.95-1.08-.26-.47-.47-1.04-.61-1.71-.14-.67-.22-1.43-.22-2.27Zm.96,0c0,.74,.06,1.38,.19,1.92,.13,.55,.29,1,.49,1.36,.2,.36,.42,.63,.66,.81,.24,.18,.48,.27,.71,.27,.24,0,.49-.09,.73-.27,.24-.18,.47-.45,.66-.81,.2-.36,.36-.81,.48-1.36,.12-.55,.18-1.19,.18-1.92s-.06-1.36-.18-1.9c-.12-.54-.28-.99-.48-1.35-.2-.36-.42-.63-.66-.8-.24-.18-.49-.27-.73-.27-.23,0-.47,.09-.71,.27-.24,.18-.47,.45-.66,.8-.2,.36-.36,.81-.49,1.35-.13,.54-.19,1.18-.19,1.9Z"/>
      <path class="cls-1" d="M42.75,76.98h-1.01l3.31-9.24h-3.99v-1.09h5.22v.51l-3.52,9.83Z"/>
      <path class="cls-1" d="M50.94,77.08h-1.06v-1.42h1.06v1.42Z"/>
      <path class="cls-1" d="M57.97,71.81c0-.83,.07-1.58,.22-2.25,.14-.67,.35-1.24,.61-1.71,.26-.47,.58-.83,.95-1.08,.37-.25,.79-.37,1.24-.37s.85,.12,1.22,.37c.37,.25,.69,.61,.96,1.08,.27,.47,.47,1.04,.62,1.71,.15,.67,.22,1.42,.22,2.25s-.07,1.6-.21,2.27c-.14,.67-.34,1.24-.6,1.71-.26,.47-.58,.83-.95,1.08-.38,.25-.79,.38-1.26,.38s-.87-.13-1.24-.38c-.37-.25-.69-.61-.95-1.08-.26-.47-.47-1.04-.61-1.71-.14-.67-.22-1.43-.22-2.27Zm.96,0c0,.74,.06,1.38,.19,1.92,.13,.55,.29,1,.49,1.36,.2,.36,.42,.63,.66,.81,.24,.18,.48,.27,.71,.27,.24,0,.49-.09,.73-.27,.24-.18,.47-.45,.66-.81,.2-.36,.36-.81,.48-1.36,.12-.55,.18-1.19,.18-1.92s-.06-1.36-.18-1.9c-.12-.54-.28-.99-.48-1.35-.2-.36-.42-.63-.66-.8-.24-.18-.49-.27-.73-.27-.23,0-.47,.09-.71,.27-.24,.18-.47,.45-.66,.8-.2,.36-.36,.81-.49,1.35-.13,.54-.19,1.18-.19,1.9Z"/>
      <path class="cls-1" d="M67.03,76.98v-.92l2.51-3.18c.19-.23,.38-.47,.57-.73,.19-.26,.37-.53,.52-.8s.29-.57,.39-.86c.1-.29,.15-.59,.15-.9,0-.71-.14-1.23-.42-1.58-.28-.34-.68-.51-1.19-.51-.23,0-.44,.06-.64,.18-.19,.12-.37,.28-.52,.49s-.3,.44-.41,.71-.21,.55-.28,.84l-.82-.59c.21-.86,.55-1.53,1.02-2.02,.47-.48,1.07-.72,1.79-.72,.76,0,1.36,.28,1.8,.83,.44,.55,.66,1.35,.65,2.4,0,.35-.05,.69-.16,1.04-.11,.35-.25,.69-.42,1.03s-.36,.66-.57,.97c-.21,.31-.42,.6-.64,.86l-1.85,2.34h3.94v1.1h-5.4Z"/>
    </g>
    <g>
      <path class="cls-1" d="M110.9,76.99v-.92l2.51-3.18c.19-.23,.38-.47,.57-.73,.19-.26,.37-.53,.52-.8s.29-.57,.39-.86c.1-.29,.15-.59,.15-.9,0-.71-.14-1.23-.42-1.58-.28-.34-.68-.51-1.19-.51-.23,0-.44,.06-.64,.18-.19,.12-.37,.28-.52,.49s-.3,.44-.41,.71-.21,.55-.28,.84l-.82-.59c.21-.86,.55-1.53,1.02-2.02,.47-.48,1.07-.72,1.79-.72,.76,0,1.36,.28,1.8,.83,.44,.55,.66,1.35,.65,2.4,0,.35-.05,.69-.16,1.04-.11,.35-.25,.69-.42,1.03s-.36,.66-.57,.97c-.21,.31-.42,.6-.64,.86l-1.85,2.34h3.94v1.1h-5.4Z"/>
      <path class="cls-1" d="M119.16,71.81c0-.83,.07-1.58,.22-2.25,.14-.67,.35-1.24,.61-1.71,.26-.47,.58-.83,.95-1.08,.37-.25,.79-.37,1.24-.37s.85,.12,1.22,.37c.37,.25,.69,.61,.96,1.08,.27,.47,.47,1.04,.62,1.71,.15,.67,.22,1.42,.22,2.25s-.07,1.6-.21,2.27c-.14,.67-.34,1.24-.6,1.71-.26,.47-.58,.83-.95,1.08-.38,.25-.79,.38-1.26,.38s-.87-.13-1.24-.38c-.37-.25-.69-.61-.95-1.08-.26-.47-.47-1.04-.61-1.71-.14-.67-.22-1.43-.22-2.27Zm.96,0c0,.74,.06,1.38,.19,1.92,.13,.55,.29,1,.49,1.36,.2,.36,.42,.63,.66,.81,.24,.18,.48,.27,.71,.27,.24,0,.49-.09,.73-.27,.24-.18,.47-.45,.66-.81,.2-.36,.36-.81,.48-1.36,.12-.55,.18-1.19,.18-1.92s-.06-1.36-.18-1.9c-.12-.54-.28-.99-.48-1.35-.2-.36-.42-.63-.66-.8-.24-.18-.49-.27-.73-.27-.23,0-.47,.09-.71,.27-.24,.18-.47,.45-.66,.8-.2,.36-.36,.81-.49,1.35-.13,.54-.19,1.18-.19,1.9Z"/>
      <path class="cls-1" d="M127.83,71.81c0-.83,.07-1.58,.22-2.25,.14-.67,.35-1.24,.61-1.71,.26-.47,.58-.83,.95-1.08,.37-.25,.79-.37,1.24-.37s.85,.12,1.22,.37c.37,.25,.69,.61,.96,1.08,.27,.47,.47,1.04,.62,1.71,.15,.67,.22,1.42,.22,2.25s-.07,1.6-.21,2.27c-.14,.67-.34,1.24-.6,1.71-.26,.47-.58,.83-.95,1.08-.38,.25-.79,.38-1.26,.38s-.87-.13-1.24-.38c-.37-.25-.69-.61-.95-1.08-.26-.47-.47-1.04-.61-1.71-.14-.67-.22-1.43-.22-2.27Zm.96,0c0,.74,.06,1.38,.19,1.92,.13,.55,.29,1,.49,1.36,.2,.36,.42,.63,.66,.81,.24,.18,.48,.27,.71,.27,.24,0,.49-.09,.73-.27,.24-.18,.47-.45,.66-.81,.2-.36,.36-.81,.48-1.36,.12-.55,.18-1.19,.18-1.92s-.06-1.36-.18-1.9c-.12-.54-.28-.99-.48-1.35-.2-.36-.42-.63-.66-.8-.24-.18-.49-.27-.73-.27-.23,0-.47,.09-.71,.27-.24,.18-.47,.45-.66,.8-.2,.36-.36,.81-.49,1.35-.13,.54-.19,1.18-.19,1.9Z"/>
      <path class="cls-1" d="M138.8,76.99l1.53-3.74c-.15,.08-.31,.14-.47,.17-.17,.03-.34,.05-.52,.05-.36,0-.7-.1-1.02-.29-.32-.19-.59-.45-.83-.76-.23-.32-.42-.69-.56-1.1-.14-.42-.21-.85-.21-1.3,0-.57,.08-1.08,.23-1.52s.36-.83,.62-1.14,.56-.55,.91-.71c.35-.16,.72-.25,1.12-.25,.35,0,.69,.08,1.02,.25s.61,.4,.86,.7c.24,.3,.44,.67,.59,1.11s.22,.93,.22,1.47c0,.41-.07,.86-.21,1.37s-.33,1.07-.58,1.7l-1.6,4h-1.11Zm.75-9.5c-.28,0-.53,.07-.76,.21-.23,.14-.42,.32-.59,.55s-.29,.49-.38,.78-.13,.6-.13,.92c0,.34,.04,.65,.13,.94,.09,.29,.21,.55,.37,.76,.16,.22,.35,.39,.58,.51,.23,.12,.49,.19,.77,.19s.54-.07,.76-.21c.22-.14,.4-.32,.55-.55,.15-.23,.26-.48,.34-.77s.12-.58,.12-.88c0-.32-.04-.63-.12-.92s-.2-.56-.35-.78c-.15-.23-.34-.41-.55-.55s-.47-.21-.74-.21Z"/>
      <path class="cls-1" d="M146.78,77.08h-1.06v-1.42h1.06v1.42Z"/>
      <path class="cls-1" d="M153.82,71.81c0-.83,.07-1.58,.22-2.25,.14-.67,.35-1.24,.61-1.71,.26-.47,.58-.83,.95-1.08,.37-.25,.79-.37,1.24-.37s.85,.12,1.22,.37c.37,.25,.69,.61,.96,1.08,.27,.47,.47,1.04,.62,1.71,.15,.67,.22,1.42,.22,2.25s-.07,1.6-.21,2.27c-.14,.67-.34,1.24-.6,1.71-.26,.47-.58,.83-.95,1.08-.38,.25-.79,.38-1.26,.38s-.87-.13-1.24-.38c-.37-.25-.69-.61-.95-1.08-.26-.47-.47-1.04-.61-1.71-.14-.67-.22-1.43-.22-2.27Zm.96,0c0,.74,.06,1.38,.19,1.92,.13,.55,.29,1,.49,1.36,.2,.36,.42,.63,.66,.81,.24,.18,.48,.27,.71,.27,.24,0,.49-.09,.73-.27,.24-.18,.47-.45,.66-.81,.2-.36,.36-.81,.48-1.36,.12-.55,.18-1.19,.18-1.92s-.06-1.36-.18-1.9c-.12-.54-.28-.99-.48-1.35-.2-.36-.42-.63-.66-.8-.24-.18-.49-.27-.73-.27-.23,0-.47,.09-.71,.27-.24,.18-.47,.45-.66,.8-.2,.36-.36,.81-.49,1.35-.13,.54-.19,1.18-.19,1.9Z"/>
      <path class="cls-1" d="M162.88,76.99v-.92l2.51-3.18c.19-.23,.38-.47,.57-.73,.19-.26,.37-.53,.52-.8s.29-.57,.39-.86c.1-.29,.15-.59,.15-.9,0-.71-.14-1.23-.42-1.58-.28-.34-.68-.51-1.19-.51-.23,0-.44,.06-.64,.18-.19,.12-.37,.28-.52,.49s-.3,.44-.41,.71-.21,.55-.28,.84l-.82-.59c.21-.86,.55-1.53,1.02-2.02,.47-.48,1.07-.72,1.79-.72,.76,0,1.36,.28,1.8,.83,.44,.55,.66,1.35,.65,2.4,0,.35-.05,.69-.16,1.04-.11,.35-.25,.69-.42,1.03s-.36,.66-.57,.97c-.21,.31-.42,.6-.64,.86l-1.85,2.34h3.94v1.1h-5.4Z"/>
    </g>
    <g>
      <path class="cls-1" d="M339.52,76.97v-.92l2.51-3.18c.19-.23,.38-.47,.57-.73s.37-.53,.52-.8,.29-.57,.38-.86,.15-.59,.15-.9c0-.71-.14-1.23-.42-1.58-.28-.34-.68-.51-1.19-.51-.23,0-.44,.06-.63,.18-.19,.12-.37,.28-.53,.49s-.29,.44-.41,.71c-.12,.27-.21,.55-.28,.84l-.82-.59c.21-.86,.55-1.53,1.03-2.02,.47-.48,1.07-.72,1.79-.72,.76,0,1.36,.28,1.79,.83,.44,.55,.66,1.35,.65,2.4,0,.35-.05,.69-.16,1.04-.11,.35-.25,.69-.42,1.03-.17,.34-.36,.66-.57,.97-.21,.31-.42,.6-.64,.86l-1.85,2.34h3.94v1.1h-5.4Z"/>
      <path class="cls-1" d="M347.79,71.79c0-.83,.07-1.58,.22-2.25,.14-.67,.35-1.24,.61-1.71,.26-.47,.58-.83,.95-1.08,.37-.25,.79-.37,1.24-.37s.85,.12,1.22,.37c.37,.25,.69,.61,.96,1.08,.27,.47,.47,1.04,.62,1.71,.15,.67,.22,1.42,.22,2.25s-.07,1.6-.21,2.27c-.14,.67-.34,1.24-.6,1.71-.26,.47-.58,.83-.95,1.08-.38,.25-.79,.38-1.26,.38s-.87-.13-1.24-.38c-.37-.25-.69-.61-.95-1.08-.26-.47-.47-1.04-.61-1.71-.14-.67-.22-1.43-.22-2.27Zm.96,0c0,.74,.06,1.38,.19,1.92,.13,.55,.29,1,.49,1.36,.2,.36,.42,.63,.66,.81,.24,.18,.48,.27,.71,.27,.24,0,.49-.09,.73-.27,.24-.18,.46-.45,.66-.81,.2-.36,.36-.81,.48-1.36,.12-.55,.18-1.19,.18-1.92s-.06-1.36-.18-1.9c-.12-.54-.28-.99-.48-1.35-.2-.36-.42-.63-.66-.8-.24-.18-.49-.27-.73-.27s-.47,.09-.71,.27c-.24,.18-.46,.45-.66,.8-.2,.36-.36,.81-.49,1.35-.13,.54-.19,1.18-.19,1.9Z"/>
      <path class="cls-1" d="M356.85,76.97v-.92l2.51-3.18c.19-.23,.38-.47,.57-.73s.37-.53,.52-.8,.29-.57,.38-.86,.15-.59,.15-.9c0-.71-.14-1.23-.42-1.58-.28-.34-.68-.51-1.19-.51-.23,0-.44,.06-.63,.18-.19,.12-.37,.28-.53,.49s-.29,.44-.41,.71c-.12,.27-.21,.55-.28,.84l-.82-.59c.21-.86,.55-1.53,1.03-2.02,.47-.48,1.07-.72,1.79-.72,.76,0,1.36,.28,1.79,.83,.44,.55,.66,1.35,.65,2.4,0,.35-.05,.69-.16,1.04-.11,.35-.25,.69-.42,1.03-.17,.34-.36,.66-.57,.97-.21,.31-.42,.6-.64,.86l-1.85,2.34h3.94v1.1h-5.4Z"/>
      <path class="cls-1" d="M366.24,74.2c.17,.61,.4,1.09,.71,1.44s.7,.52,1.17,.52c.28,0,.53-.07,.76-.21,.23-.14,.42-.32,.59-.55,.16-.23,.29-.49,.38-.78,.09-.3,.13-.6,.13-.92,0-.37-.04-.71-.13-1.01s-.22-.56-.38-.78-.37-.39-.61-.51-.51-.18-.81-.18-.58,.12-.81,.35c-.23,.23-.44,.53-.63,.9h-.99v-5.83h4.92v1.1h-3.96v3.26c.48-.59,1.06-.89,1.74-.89,.37,0,.72,.09,1.04,.26,.32,.17,.6,.41,.83,.73s.42,.69,.55,1.12c.13,.44,.2,.92,.2,1.46,0,.47-.06,.92-.18,1.36-.12,.43-.3,.82-.54,1.15-.24,.33-.53,.6-.89,.79-.35,.19-.76,.29-1.22,.29-.73,0-1.33-.23-1.79-.69-.46-.46-.79-1.09-.99-1.88l.91-.49Z"/>
      <path class="cls-1" d="M375.41,77.06h-1.06v-1.42h1.06v1.42Z"/>
      <path class="cls-1" d="M382.44,71.79c0-.83,.07-1.58,.22-2.25,.14-.67,.35-1.24,.61-1.71,.26-.47,.58-.83,.95-1.08,.37-.25,.79-.37,1.24-.37s.85,.12,1.22,.37c.37,.25,.69,.61,.96,1.08,.27,.47,.47,1.04,.62,1.71,.15,.67,.22,1.42,.22,2.25s-.07,1.6-.21,2.27c-.14,.67-.34,1.24-.6,1.71-.26,.47-.58,.83-.95,1.08-.38,.25-.79,.38-1.26,.38s-.87-.13-1.24-.38c-.37-.25-.69-.61-.95-1.08-.26-.47-.47-1.04-.61-1.71-.14-.67-.22-1.43-.22-2.27Zm.96,0c0,.74,.06,1.38,.19,1.92,.13,.55,.29,1,.49,1.36,.2,.36,.42,.63,.66,.81,.24,.18,.48,.27,.71,.27,.24,0,.49-.09,.73-.27,.24-.18,.46-.45,.66-.81,.2-.36,.36-.81,.48-1.36,.12-.55,.18-1.19,.18-1.92s-.06-1.36-.18-1.9c-.12-.54-.28-.99-.48-1.35-.2-.36-.42-.63-.66-.8-.24-.18-.49-.27-.73-.27s-.47,.09-.71,.27c-.24,.18-.46,.45-.66,.8-.2,.36-.36,.81-.49,1.35-.13,.54-.19,1.18-.19,1.9Z"/>
      <path class="cls-1" d="M394.84,66.63l-1.53,3.74c.15-.08,.3-.14,.47-.17,.17-.03,.34-.05,.52-.05,.36,0,.7,.1,1.02,.29s.59,.45,.83,.76c.23,.32,.42,.69,.56,1.1,.14,.42,.21,.85,.21,1.3,0,.57-.08,1.08-.23,1.52-.15,.45-.36,.83-.62,1.14-.26,.31-.57,.55-.92,.71s-.72,.25-1.12,.25c-.36,0-.7-.08-1.03-.25s-.61-.4-.85-.7c-.24-.3-.44-.67-.59-1.1-.15-.43-.22-.93-.22-1.48,0-.41,.07-.86,.21-1.37,.14-.51,.33-1.07,.58-1.7l1.6-4h1.11Zm-.75,9.5c.28,0,.53-.07,.76-.21,.23-.14,.42-.32,.59-.55,.16-.23,.29-.49,.38-.78,.09-.3,.13-.61,.13-.92,0-.34-.04-.65-.13-.94-.09-.29-.21-.55-.37-.77s-.35-.39-.58-.51c-.23-.12-.49-.19-.78-.19s-.54,.07-.76,.21c-.22,.14-.4,.32-.55,.55-.15,.23-.26,.48-.34,.77-.08,.29-.12,.58-.12,.88,0,.32,.04,.63,.12,.92,.08,.3,.2,.56,.35,.78,.15,.23,.34,.41,.55,.55,.22,.14,.47,.21,.74,.21Z"/>
    </g>
    <path class="cls-1" d="M92.49,71.81l-4.06-4.42,1.79-1.96,4.81,5.26v2.24l-4.81,5.26-1.79-1.96,4.06-4.43Z"/>
    <path class="cls-1" d="M188.88,71.81l-4.06-4.42,1.79-1.96,4.81,5.26v2.24l-4.81,5.26-1.79-1.96,4.06-4.43Z"/>
    <path class="cls-1" d="M321.41,71.81l-4.06-4.42,1.79-1.96,4.81,5.26v2.24l-4.81,5.26-1.79-1.96,4.06-4.43Z"/>
    <g>
      <path class="cls-1" d="M207.15,76.99v-.92l2.51-3.18c.19-.23,.38-.47,.57-.73,.19-.26,.37-.53,.52-.8s.29-.57,.38-.86,.15-.59,.15-.9c0-.71-.14-1.23-.42-1.58-.28-.34-.68-.51-1.19-.51-.23,0-.44,.06-.64,.18-.19,.12-.37,.28-.52,.49s-.29,.44-.41,.71c-.12,.27-.21,.55-.28,.84l-.82-.59c.21-.86,.55-1.53,1.02-2.02,.47-.48,1.07-.72,1.79-.72,.76,0,1.36,.28,1.8,.83,.44,.55,.66,1.35,.65,2.4,0,.35-.05,.69-.16,1.04-.11,.35-.25,.69-.42,1.03-.17,.34-.36,.66-.57,.97-.21,.31-.42,.6-.64,.86l-1.85,2.34h3.94v1.1h-5.4Z"/>
      <path class="cls-1" d="M213.05,71.81c0-.83,.07-1.58,.22-2.25,.14-.67,.35-1.24,.61-1.71,.26-.47,.58-.83,.95-1.08,.37-.25,.79-.37,1.24-.37s.85,.12,1.22,.37c.37,.25,.69,.61,.96,1.08,.27,.47,.47,1.04,.62,1.71,.15,.67,.22,1.42,.22,2.25s-.07,1.6-.21,2.27c-.14,.67-.34,1.24-.6,1.71-.26,.47-.58,.83-.95,1.08-.38,.25-.79,.38-1.26,.38s-.87-.13-1.24-.38c-.37-.25-.69-.61-.95-1.08-.26-.47-.47-1.04-.61-1.71-.14-.67-.22-1.43-.22-2.27Zm.96,0c0,.74,.06,1.38,.19,1.92s.29,1,.49,1.36c.2,.36,.42,.63,.66,.81,.24,.18,.48,.27,.71,.27,.24,0,.49-.09,.73-.27,.24-.18,.47-.45,.66-.81,.2-.36,.36-.81,.48-1.36,.12-.55,.18-1.19,.18-1.92s-.06-1.36-.18-1.9c-.12-.54-.28-.99-.48-1.35-.2-.36-.42-.63-.66-.8-.24-.18-.49-.27-.73-.27-.23,0-.47,.09-.71,.27-.24,.18-.47,.45-.66,.8-.2,.36-.36,.81-.49,1.35-.13,.54-.19,1.18-.19,1.9Z"/>
      <path class="cls-1" d="M219.79,71.81c0-.83,.07-1.58,.22-2.25,.14-.67,.35-1.24,.61-1.71,.26-.47,.58-.83,.95-1.08,.37-.25,.79-.37,1.24-.37s.85,.12,1.22,.37c.37,.25,.69,.61,.96,1.08,.27,.47,.47,1.04,.62,1.71,.15,.67,.22,1.42,.22,2.25s-.07,1.6-.21,2.27c-.14,.67-.34,1.24-.6,1.71-.26,.47-.58,.83-.95,1.08-.38,.25-.79,.38-1.26,.38s-.87-.13-1.24-.38c-.37-.25-.69-.61-.95-1.08-.26-.47-.47-1.04-.61-1.71-.14-.67-.22-1.43-.22-2.27Zm.96,0c0,.74,.06,1.38,.19,1.92s.29,1,.49,1.36c.2,.36,.42,.63,.66,.81,.24,.18,.48,.27,.71,.27,.24,0,.49-.09,.73-.27,.24-.18,.47-.45,.66-.81,.2-.36,.36-.81,.48-1.36,.12-.55,.18-1.19,.18-1.92s-.06-1.36-.18-1.9c-.12-.54-.28-.99-.48-1.35-.2-.36-.42-.63-.66-.8-.24-.18-.49-.27-.73-.27-.23,0-.47,.09-.71,.27-.24,.18-.47,.45-.66,.8-.2,.36-.36,.81-.49,1.35-.13,.54-.19,1.18-.19,1.9Z"/>
      <path class="cls-1" d="M228.58,76.99l1.53-3.74c-.15,.08-.31,.14-.47,.17-.17,.03-.34,.05-.52,.05-.36,0-.7-.1-1.02-.29-.32-.19-.59-.45-.83-.76-.23-.32-.42-.69-.56-1.1-.14-.42-.21-.85-.21-1.3,0-.57,.08-1.08,.23-1.52s.36-.83,.62-1.14c.26-.31,.56-.55,.91-.71,.35-.16,.72-.25,1.12-.25,.35,0,.69,.08,1.02,.25,.33,.16,.61,.4,.86,.7,.24,.3,.44,.67,.59,1.11,.15,.44,.22,.93,.22,1.47,0,.41-.07,.86-.21,1.37-.14,.51-.33,1.07-.58,1.7l-1.6,4h-1.11Zm.75-9.5c-.28,0-.53,.07-.76,.21-.23,.14-.42,.32-.59,.55s-.29,.49-.38,.78-.13,.6-.13,.92c0,.34,.04,.65,.13,.94,.09,.29,.21,.55,.37,.76,.16,.22,.35,.39,.58,.51,.23,.12,.49,.19,.77,.19s.54-.07,.76-.21c.22-.14,.4-.32,.55-.55,.15-.23,.26-.48,.34-.77s.12-.58,.12-.88c0-.32-.04-.63-.12-.92s-.2-.56-.35-.78-.34-.41-.55-.55c-.22-.14-.47-.21-.74-.21Z"/>
      <path class="cls-1" d="M236.89,77.08h-1.06v-1.42h1.06v1.42Z"/>
      <path class="cls-1" d="M240.52,71.81c0-.83,.07-1.58,.22-2.25,.14-.67,.35-1.24,.61-1.71,.26-.47,.58-.83,.95-1.08,.37-.25,.79-.37,1.24-.37s.85,.12,1.22,.37c.37,.25,.69,.61,.96,1.08,.27,.47,.47,1.04,.62,1.71,.15,.67,.22,1.42,.22,2.25s-.07,1.6-.21,2.27c-.14,.67-.34,1.24-.6,1.71-.26,.47-.58,.83-.95,1.08-.38,.25-.79,.38-1.26,.38s-.87-.13-1.24-.38c-.37-.25-.69-.61-.95-1.08-.26-.47-.47-1.04-.61-1.71-.14-.67-.22-1.43-.22-2.27Zm.96,0c0,.74,.06,1.38,.19,1.92s.29,1,.49,1.36c.2,.36,.42,.63,.66,.81,.24,.18,.48,.27,.71,.27,.24,0,.49-.09,.73-.27,.24-.18,.47-.45,.66-.81,.2-.36,.36-.81,.48-1.36,.12-.55,.18-1.19,.18-1.92s-.06-1.36-.18-1.9c-.12-.54-.28-.99-.48-1.35-.2-.36-.42-.63-.66-.8-.24-.18-.49-.27-.73-.27-.23,0-.47,.09-.71,.27-.24,.18-.47,.45-.66,.8-.2,.36-.36,.81-.49,1.35-.13,.54-.19,1.18-.19,1.9Z"/>
      <path class="cls-1" d="M247.46,68.72c.1-.35,.23-.68,.39-.96s.36-.53,.58-.73c.22-.2,.46-.35,.73-.46s.54-.16,.83-.16c.42,0,.8,.07,1.14,.22,.33,.15,.61,.35,.84,.61,.23,.26,.4,.56,.52,.91,.12,.35,.18,.72,.18,1.12,0,.27-.03,.54-.08,.8-.05,.26-.13,.5-.23,.72-.1,.22-.22,.41-.37,.56-.15,.16-.31,.28-.49,.36,.18,.06,.35,.16,.52,.31,.17,.14,.31,.32,.44,.53,.13,.21,.23,.46,.31,.74,.08,.28,.12,.58,.12,.91,0,.55-.08,1.02-.24,1.41-.16,.39-.37,.71-.64,.95-.27,.24-.57,.42-.92,.53-.35,.11-.71,.17-1.09,.17-.29,0-.57-.04-.84-.13-.27-.09-.52-.23-.76-.41-.24-.19-.45-.42-.64-.71-.19-.28-.35-.62-.48-1l.87-.56c.13,.54,.37,.96,.71,1.26s.71,.45,1.13,.45c.24,0,.48-.04,.71-.11,.23-.07,.44-.18,.62-.34,.18-.16,.33-.35,.44-.59,.11-.24,.17-.53,.17-.88s-.05-.66-.16-.9c-.11-.25-.25-.45-.43-.6s-.38-.26-.62-.33c-.23-.07-.47-.11-.71-.11h-.69v-1.09h.69c.24,0,.46-.04,.67-.11,.21-.08,.39-.19,.54-.35,.15-.15,.28-.35,.37-.57s.13-.49,.13-.8c0-.33-.05-.61-.14-.85-.1-.24-.22-.43-.38-.58-.16-.15-.35-.26-.56-.34-.21-.08-.44-.11-.67-.11-.17,0-.34,.04-.51,.13-.17,.09-.32,.21-.47,.37-.14,.16-.27,.35-.38,.56s-.2,.44-.27,.69l-.85-.53Z"/>
      <path class="cls-1" d="M257.73,70.35c.15,0,.33,.05,.53,.15,.2,.1,.38,.21,.55,.33,.15,.1,.3,.19,.45,.27,.15,.08,.3,.13,.45,.13,.22,0,.42-.04,.6-.11,.18-.07,.36-.2,.53-.4v1.22c-.18,.18-.36,.3-.54,.38-.18,.08-.4,.11-.65,.11-.13,0-.28-.04-.45-.11-.17-.08-.33-.16-.48-.26-.17-.12-.35-.24-.52-.35-.18-.11-.35-.16-.52-.16-.21,0-.41,.03-.59,.08s-.36,.16-.55,.32v-1.22c.18-.15,.36-.25,.55-.31,.19-.05,.4-.08,.65-.08Z"/>
      <path class="cls-1" d="M264.5,76.99v-.92l2.51-3.18c.19-.23,.38-.47,.57-.73,.19-.26,.37-.53,.52-.8s.29-.57,.38-.86,.15-.59,.15-.9c0-.71-.14-1.23-.42-1.58-.28-.34-.68-.51-1.19-.51-.23,0-.44,.06-.64,.18-.19,.12-.37,.28-.52,.49s-.29,.44-.41,.71c-.12,.27-.21,.55-.28,.84l-.82-.59c.21-.86,.55-1.53,1.02-2.02,.47-.48,1.07-.72,1.79-.72,.76,0,1.36,.28,1.8,.83,.44,.55,.66,1.35,.65,2.4,0,.35-.05,.69-.16,1.04-.11,.35-.25,.69-.42,1.03-.17,.34-.36,.66-.57,.97-.21,.31-.42,.6-.64,.86l-1.85,2.34h3.94v1.1h-5.4Z"/>
      <path class="cls-1" d="M270.4,71.81c0-.83,.07-1.58,.22-2.25,.14-.67,.35-1.24,.61-1.71,.26-.47,.58-.83,.95-1.08,.37-.25,.79-.37,1.24-.37s.85,.12,1.22,.37c.37,.25,.69,.61,.96,1.08,.27,.47,.47,1.04,.62,1.71,.15,.67,.22,1.42,.22,2.25s-.07,1.6-.21,2.27c-.14,.67-.34,1.24-.6,1.71-.26,.47-.58,.83-.95,1.08-.38,.25-.79,.38-1.26,.38s-.87-.13-1.24-.38c-.37-.25-.69-.61-.95-1.08-.26-.47-.47-1.04-.61-1.71-.14-.67-.22-1.43-.22-2.27Zm.96,0c0,.74,.06,1.38,.19,1.92s.29,1,.49,1.36c.2,.36,.42,.63,.66,.81,.24,.18,.48,.27,.71,.27,.24,0,.49-.09,.73-.27,.24-.18,.47-.45,.66-.81,.2-.36,.36-.81,.48-1.36,.12-.55,.18-1.19,.18-1.92s-.06-1.36-.18-1.9c-.12-.54-.28-.99-.48-1.35-.2-.36-.42-.63-.66-.8-.24-.18-.49-.27-.73-.27-.23,0-.47,.09-.71,.27-.24,.18-.47,.45-.66,.8-.2,.36-.36,.81-.49,1.35-.13,.54-.19,1.18-.19,1.9Z"/>
      <path class="cls-1" d="M277.31,76.99v-.92l2.51-3.18c.19-.23,.38-.47,.57-.73,.19-.26,.37-.53,.52-.8s.29-.57,.38-.86,.15-.59,.15-.9c0-.71-.14-1.23-.42-1.58-.28-.34-.68-.51-1.19-.51-.23,0-.44,.06-.64,.18-.19,.12-.37,.28-.52,.49s-.29,.44-.41,.71c-.12,.27-.21,.55-.28,.84l-.82-.59c.21-.86,.55-1.53,1.02-2.02,.47-.48,1.07-.72,1.79-.72,.76,0,1.36,.28,1.8,.83,.44,.55,.66,1.35,.65,2.4,0,.35-.05,.69-.16,1.04-.11,.35-.25,.69-.42,1.03-.17,.34-.36,.66-.57,.97-.21,.31-.42,.6-.64,.86l-1.85,2.34h3.94v1.1h-5.4Z"/>
      <path class="cls-1" d="M283.39,74.74v-1.09l3.58-7h1.09v7h1.08v1.09h-1.08v2.25h-.96v-2.25h-3.71Zm3.71-6.29l-2.66,5.2h2.66v-5.2Z"/>
      <path class="cls-1" d="M293.66,77.08h-1.06v-1.42h1.06v1.42Z"/>
      <path class="cls-1" d="M297.07,66.65h2.31v10.33h-.96v-9.24h-1.35v-1.09Z"/>
      <path class="cls-1" d="M300.35,66.65h2.31v10.33h-.96v-9.24h-1.35v-1.09Z"/>
    </g>
  </g>
</svg>