<?xml version="1.0" encoding="UTF-8"?>
<svg id="Layer_1" data-name="Layer 1" xmlns="http://www.w3.org/2000/svg" viewBox="0 0 134.81 155.35">
  <defs>
    <style>
      .cls-1 {
        fill: #fff;
      }

      .cls-2, .cls-3 {
        fill: #ebe783;
      }

      .cls-3 {
        font-family: Gabriola, Gabriola;
        font-size: 20.52px;
      }
    </style>
  </defs>
  <g>
    <path class="cls-2" d="M128.88,44.25c.73,1.56,1.11,3.27,1.1,5l-.82,75.45c-.03,1.34-1.36,2.17-2.47,1.56-.69-.38-1.39-.75-2.1-1.11-8.28-4.18-11.02-5.07-20.52-5.53-.91-.04-1.62-.84-1.62-1.81l-.03-31.45c0-1.24-3-1.39-3.34-.17l-8.68,30.89c-.24,.85-1.03,1.4-1.85,1.28-5.88-.89-11.53-2.38-16.99-4.92-8.53-3.97-15.76-9.62-21.74-15.92-10.23-10.79-16.34-23.69-26.49-34.56-6.04-6.47-13.49-12.7-22.25-16.57-1.74-.77-1.25-3.46,.64-3.47h.11s39.26,0,39.26,0c7.63,0,14.19,3.27,15.6,7.79,1.21,3.9,2.45,8.16,3.7,12.77l4.02,13.21c1.03,3.38,5.63,3.3,6.55-.12l6.86-25.59c1.25-4.64,7.9-8.06,15.72-8.06l33.28-.02c.88-.01,1.68,.51,2.07,1.33h0Z"/>
    <text class="cls-3" transform="translate(39.13 116.27) rotate(29.71) scale(1.94 1)"><tspan x="0" y="0">m</tspan></text>
    <text class="cls-3" transform="translate(61.65 128.23) rotate(17.96) scale(1.94 1)"><tspan x="0" y="0">y</tspan></text>
    <text class="cls-3" transform="translate(74.48 132.18) rotate(14.25) scale(1.94 1)"><tspan x="0" y="0"> </tspan></text>
    <text class="cls-3" transform="translate(81.16 133.9) rotate(13.16) scale(1.94 1)"><tspan x="0" y="0">s</tspan></text>
    <text class="cls-3" transform="translate(92.28 136.52) rotate(11.52) scale(1.94 1)"><tspan x="0" y="0">e</tspan></text>
    <text class="cls-3" transform="translate(104.3 138.94) rotate(9.8) scale(1.94 1)"><tspan x="0" y="0">l</tspan></text>
    <text class="cls-3" transform="translate(112.16 140.31) rotate(7.89) scale(1.94 1)"><tspan x="0" y="0">f</tspan></text>
    <path class="cls-2" d="M114.79,19.79c32.38,0-3.8,37.82-3.8,3.97,0,33.85-36.18-3.97-3.8-3.97-32.38,0,3.8-37.82,3.8-3.97,0-33.85,36.18,3.97,3.8,3.97Z"/>
  </g>
  <path class="cls-1" d="M131.47,41.78c.69,1.44,1.04,3.01,1.04,4.61l-.78,69.57c-.03,1.23-1.28,2-2.33,1.44-.65-.35-1.31-.69-1.98-1.02-7.81-3.85-10.39-4.68-19.35-5.1-.86-.04-1.53-.77-1.53-1.67l-.03-28.99c0-1.15-2.83-1.28-3.15-.16l-8.18,28.48c-.23,.79-.97,1.29-1.75,1.18-5.54-.82-10.87-2.19-16.02-4.53-8.05-3.66-14.87-8.87-20.5-14.67-9.65-9.95-15.41-21.84-24.98-31.87-5.7-5.97-12.72-11.71-20.99-15.28-1.64-.71-1.18-3.19,.61-3.2h.11s37.02,0,37.02,0c7.2,0,13.39,3.01,14.71,7.18,1.14,3.6,2.31,7.52,3.49,11.77l3.79,12.18c.97,3.12,5.31,3.04,6.17-.11l6.47-23.59c1.17-4.28,7.45-7.43,14.82-7.43l31.39-.02c.83-.01,1.59,.47,1.95,1.23h0Z"/>
  <path class="cls-1" d="M120.02,16.64c30.54,0-3.58,34.87-3.58,3.66,0,31.21-34.12-3.66-3.58-3.66-30.54,0,3.58-34.87,3.58-3.66,0-31.21,34.12,3.66,3.58,3.66Z"/>
</svg>